<svg width="100%" height="100%" viewBox="0 0 50 42" xmlns="http://www.w3.org/2000/svg">
<defs>
<path id="path-final-url__w" fill="#007CBA" d="M17.4385 21.26C17.2604 21.9038 17.0549 22.5339 16.8631 23.1641C16.3563 24.7531 15.8631 26.3422 15.3563 27.9449C15.2193 28.3833 15.0686 28.7942 14.4933 28.7942C13.9179 28.7805 13.7809 28.3559 13.644 27.9175C13.2604 26.712 12.8905 25.5065 12.507 24.3148C12.4659 24.1641 12.3974 24.0134 12.2878 23.712C11.9453 24.7668 11.6577 25.6846 11.37 26.6024C11.2056 27.123 11.0275 27.6435 10.8768 28.1641C10.7672 28.5476 10.5344 28.7805 10.1234 28.7942C9.69875 28.8079 9.45218 28.5613 9.32889 28.1915C8.61656 25.9312 7.90423 23.6709 7.2056 21.4107C7.02752 20.849 7.2467 20.4107 7.68505 20.2874C8.13711 20.1641 8.52067 20.4107 8.69875 20.9723C9.15081 22.397 9.60286 23.8353 10.096 25.397C10.3152 24.7394 10.4796 24.2052 10.644 23.6709C10.9179 22.7805 11.2056 21.8764 11.4796 20.986C11.6029 20.5887 11.7946 20.26 12.2741 20.26C12.7672 20.26 12.9727 20.5887 13.1097 21.0134C13.5481 22.4244 14.0001 23.8353 14.4933 25.397C14.9727 23.8627 15.4111 22.4791 15.8494 21.1093C15.8905 20.9997 15.9179 20.8764 15.959 20.7668C16.1508 20.3285 16.5481 20.1504 16.959 20.3011C17.3563 20.4381 17.5618 20.8216 17.4385 21.26Z"/>
<circle id="path-final-url__dot" fill="#007CBA" cx="6.87" cy="4.66" r="1.15"/>
</defs>
<rect width="48" height="39" x="1" y="1.2" fill="white"/>
<path fill="#757575" d="M46.8356 0H3.16438C1.08219 0 0 1.08219 0 3.15068V38.2055C0 40.274 1.09589 41.3562 3.16438 41.3562H46.8356C48.9178 41.3562 50 40.274 50 38.2055V3.15068C50 1.08219 48.9178 0 46.8356 0ZM1.56164 7.09589C1.60274 5.72603 1.57534 4.35616 1.57534 3C1.57534 2 1.9863 1.58904 2.9726 1.58904C17.6575 1.58904 32.3425 1.58904 47.0274 1.58904C48 1.58904 48.411 2 48.4247 3C48.4247 4.38356 48.411 5.76712 48.4384 7.15068C48.4521 7.61644 48.3288 7.75342 47.8493 7.75342C40.2192 7.73973 32.5753 7.73973 24.9452 7.73973C17.3699 7.73973 9.78082 7.73973 2.20548 7.75342C1.67123 7.75342 1.54795 7.60274 1.56164 7.09589ZM48.4247 38.2055C48.4247 39.3973 48.0548 39.7671 46.8767 39.7671C32.2877 39.7671 17.7123 39.7671 3.12329 39.7671C1.93151 39.7671 1.57534 39.3973 1.57534 38.2055C1.57534 28.7671 1.57534 19.3151 1.56164 9.87671C1.56164 9.41096 1.68493 9.28767 2.15068 9.28767C9.76712 9.30137 17.3836 9.30137 25 9.30137C32.6164 9.30137 40.2329 9.30137 47.8493 9.28767C48.3151 9.28767 48.4384 9.41096 48.4384 9.87671C48.4247 19.3151 48.4247 28.7534 48.4247 38.2055Z"/>
<use href="#path-final-url__w"/>
<use href="#path-final-url__w" x="12.68"/>
<use href="#path-final-url__w" x="25.39"/>
<use href="#path-final-url__dot"/>
<use href="#path-final-url__dot" x="4.5"/>
<use href="#path-final-url__dot" x="9"/>
</svg>
