<svg width="40" height="40" viewBox="0 0 40 40" fill="none" xmlns="http://www.w3.org/2000/svg">
<g>
<path d="M39.0674 20.3742C39.0674 18.7354 38.9344 17.5395 38.6466 16.2994H19.9333V23.696H30.9176C30.6962 25.5342 29.5003 28.3024 26.8428 30.1625L26.8055 30.4102L32.7223 34.9938L33.1322 35.0347C36.897 31.5578 39.0674 26.4421 39.0674 20.3742Z" fill="#4285F4"/>
<path d="M19.9333 39.8627C25.3146 39.8627 29.8323 38.091 33.1322 35.0349L26.8427 30.1627C25.1597 31.3364 22.9008 32.1558 19.9333 32.1558C14.6626 32.1558 10.1892 28.679 8.59452 23.8733L8.36078 23.8931L2.20843 28.6545L2.12797 28.8782C5.40552 35.3891 12.1379 39.8627 19.9333 39.8627Z" fill="#34A853"/>
<path d="M8.59453 23.8733C8.17377 22.6331 7.93026 21.3043 7.93026 19.9313C7.93026 18.5582 8.17377 17.2295 8.5724 15.9893L8.56125 15.7252L2.33179 10.8873L2.12797 10.9843C0.777129 13.6861 0.00201416 16.7202 0.00201416 19.9313C0.00201416 23.1424 0.777129 26.1763 2.12797 28.8782L8.59453 23.8733Z" fill="#FBBC05"/>
<path d="M19.9333 7.7067C23.6759 7.7067 26.2005 9.32334 27.6401 10.6743L33.2651 5.18213C29.8105 1.97099 25.3147 0 19.9333 0C12.1379 0 5.40553 4.47343 2.12797 10.9843L8.57241 15.9893C10.1892 11.1836 14.6626 7.7067 19.9333 7.7067Z" fill="#EB4335"/>
</g>
</svg>
