<svg width="40" height="40" viewBox="0 0 40 40" fill="none" xmlns="http://www.w3.org/2000/svg">
<g clip-path="url(#clip0_168_74133)">
<path fill-rule="evenodd" clip-rule="evenodd" d="M0 9.58887H39.9805V36.6593C39.9805 38.4993 38.4892 39.9907 36.6491 39.9907H3.33138C1.49146 39.9907 0 38.4987 0 36.6593V9.58887Z" fill="#518FF5"/>
<path fill-rule="evenodd" clip-rule="evenodd" d="M14.1055 28.7077L24.4882 19.2139L39.9998 34.7023L39.9925 36.6581C39.9857 38.4981 38.4889 39.9899 36.6485 39.9899H25.4373L14.1055 28.7077Z" fill="url(#paint0_linear_168_74133)"/>
<path fill-rule="evenodd" clip-rule="evenodd" d="M0 3.34144C0 1.50142 1.49126 0.00976562 3.33138 0.00976562H36.6491C38.489 0.00976562 39.9805 1.50122 39.9805 3.34144V9.58839H0V3.34144Z" fill="#4758B8"/>
<path fill-rule="evenodd" clip-rule="evenodd" d="M18.3241 4.59107H14.3672C13.5624 4.59107 12.9102 5.24368 12.9102 6.04876C12.9102 6.85393 13.5625 7.50635 14.3672 7.50635H25.6128C26.4176 7.50635 27.0698 6.85374 27.0698 6.04876C27.0698 5.24349 26.4175 4.59107 25.6128 4.59107H21.6558V4.17468C21.6558 3.25423 20.9101 2.50879 19.99 2.50879C19.0697 2.50879 18.3241 3.25462 18.3241 4.17468V4.59107Z" fill="white"/>
<g filter="url(#filter0_d_168_74133)">
<path d="M13.4016 19.6098C12.5661 19.6098 11.8887 18.9324 11.8887 18.0969C11.8887 17.2614 12.5661 16.584 13.4016 16.584C14.2371 16.584 14.9145 17.2614 14.9145 18.0969C14.9145 18.9324 14.2371 19.6098 13.4016 19.6098ZM29.5425 24.2591L20.4064 15.123C20.0409 14.7575 19.5334 14.5342 18.975 14.5342H11.8691C11.6023 14.5333 11.3378 14.5851 11.0911 14.6868C10.8444 14.7885 10.6202 14.9381 10.4315 15.1268C10.2427 15.3155 10.0932 15.5397 9.99153 15.7864C9.88983 16.0331 9.83795 16.2976 9.83888 16.5645V23.6704C9.83888 24.2287 10.0622 24.7362 10.4378 25.1017L19.5638 34.2379C19.9394 34.6033 20.447 34.8368 21.0053 34.8368C21.5636 34.8368 22.0712 34.6033 22.4366 34.2379L29.5425 27.1319C29.9181 26.7665 30.1415 26.2589 30.1415 25.7006C30.1415 25.1321 29.908 24.6246 29.5425 24.2591Z" fill="black"/>
</g>
<path d="M13.4016 19.6098C12.5661 19.6098 11.8887 18.9324 11.8887 18.0969C11.8887 17.2614 12.5661 16.584 13.4016 16.584C14.2371 16.584 14.9145 17.2614 14.9145 18.0969C14.9145 18.9324 14.2371 19.6098 13.4016 19.6098ZM29.5425 24.2591L20.4064 15.123C20.0409 14.7575 19.5334 14.5342 18.975 14.5342H11.8691C11.6023 14.5333 11.3378 14.5851 11.0911 14.6868C10.8444 14.7885 10.6202 14.9381 10.4315 15.1268C10.2427 15.3155 10.0932 15.5397 9.99153 15.7864C9.88983 16.0331 9.83795 16.2976 9.83888 16.5645V23.6704C9.83888 24.2287 10.0622 24.7362 10.4378 25.1017L19.5638 34.2379C19.9394 34.6033 20.447 34.8368 21.0053 34.8368C21.5636 34.8368 22.0712 34.6033 22.4366 34.2379L29.5425 27.1319C29.9181 26.7665 30.1415 26.2589 30.1415 25.7006C30.1415 25.1321 29.908 24.6246 29.5425 24.2591Z" fill="white"/>
</g>
<defs>
<filter id="filter0_d_168_74133" x="-45.066" y="-40.3706" width="178.917" height="178.917" filterUnits="userSpaceOnUse" color-interpolation-filters="sRGB">
<feFlood flood-opacity="0" result="BackgroundImageFix"/>
<feColorMatrix in="SourceAlpha" type="matrix" values="0 0 0 0 0 0 0 0 0 0 0 0 0 0 0 0 0 0 127 0" result="hardAlpha"/>
<feOffset dx="24.4021" dy="24.4021"/>
<feGaussianBlur stdDeviation="39.6535"/>
<feColorMatrix type="matrix" values="0 0 0 0 0 0 0 0 0 0 0 0 0 0 0 0 0 0 0.16 0"/>
<feBlend mode="normal" in2="BackgroundImageFix" result="effect1_dropShadow_168_74133"/>
<feBlend mode="normal" in="SourceGraphic" in2="effect1_dropShadow_168_74133" result="shape"/>
</filter>
<linearGradient id="paint0_linear_168_74133" x1="39.9998" y1="39.9899" x2="19.7176" y2="14.711" gradientUnits="userSpaceOnUse">
<stop stop-color="#4385F5"/>
<stop offset="1" stop-color="#3569D3"/>
</linearGradient>
<clipPath id="clip0_168_74133">
<rect width="40" height="40" fill="white"/>
</clipPath>
</defs>
</svg>
