<svg width="40" height="40" viewBox="0 0 40 40" fill="none" xmlns="http://www.w3.org/2000/svg">
<path d="M3.16797 20.3329C3.16797 27.1241 7.11466 32.993 12.8377 35.7742L4.65341 13.3504C3.6723 15.5474 3.16612 17.9268 3.16797 20.3329ZM31.9077 19.4671C31.9077 17.3467 31.1461 15.8782 30.4928 14.7352C29.6231 13.322 28.8079 12.1251 28.8079 10.7118C28.8079 9.13466 30.0041 7.66653 31.689 7.66653C31.765 7.66653 31.8372 7.676 31.9113 7.68024C28.8588 4.8837 24.792 3.17627 20.3252 3.17627C14.3313 3.17627 9.05781 6.25161 5.98997 10.9097C6.39251 10.9218 6.77187 10.9302 7.09409 10.9302C8.88869 10.9302 11.6666 10.7125 11.6666 10.7125C12.5915 10.658 12.7006 12.0164 11.7766 12.1258C11.7766 12.1258 10.8472 12.2351 9.81293 12.2893L16.0609 30.8736L19.8156 19.6127L17.1425 12.2887C16.2186 12.2345 15.3433 12.1251 15.3433 12.1251C14.4188 12.0709 14.5271 10.6573 15.4517 10.7118C15.4517 10.7118 18.2851 10.9296 19.971 10.9296C21.7653 10.9296 24.5435 10.7118 24.5435 10.7118C25.4691 10.6573 25.5778 12.0158 24.6536 12.1251C24.6536 12.1251 23.7222 12.2345 22.6899 12.2887L28.8902 30.7322L30.6015 25.0135C31.3433 22.6404 31.9077 20.9359 31.9077 19.4671Z" fill="#21759B"/>
<path d="M20.6263 21.8337L15.4785 36.7922C17.0524 37.2557 18.6846 37.4911 20.3253 37.4912C22.3233 37.4912 24.2393 37.1458 26.0228 36.5186C25.9752 36.4436 25.9344 36.3645 25.9007 36.2822L20.6263 21.8337ZM35.3801 12.1013C35.4539 12.6478 35.4957 13.2345 35.4957 13.8656C35.4957 15.6066 35.1705 17.5638 34.1911 20.011L28.9503 35.1634C34.051 32.189 37.4819 26.6628 37.4819 20.3332C37.4822 17.3503 36.7202 14.5453 35.3801 12.1013Z" fill="#21759B"/>
<path d="M20.3244 0.333496C9.29658 0.333496 0.324219 9.3052 0.324219 20.333C0.324219 31.3621 9.29658 40.3335 20.3244 40.3335C31.3519 40.3335 40.3255 31.3621 40.3255 20.333C40.3252 9.3052 31.3519 0.333496 20.3244 0.333496ZM20.3244 39.4168C9.80228 39.4168 1.24127 30.8558 1.24127 20.333C1.24127 9.8109 9.80195 1.25055 20.3244 1.25055C30.8462 1.25055 39.4065 9.8109 39.4065 20.333C39.4065 30.8558 30.8462 39.4168 20.3244 39.4168Z" fill="#21759B"/>
</svg>
