<?xml version="1.0" encoding="utf-8"?>
<!-- Generator: Adobe Illustrator 26.4.1, SVG Export Plug-In . SVG Version: 6.00 Build 0)  -->
<svg version="1.1" id="Layer_1" xmlns="http://www.w3.org/2000/svg" xmlns:xlink="http://www.w3.org/1999/xlink" x="0px" y="0px"
	 viewBox="0 0 128 128" style="enable-background:new 0 0 128 128;" xml:space="preserve"
	 width="128" height="128">
<style type="text/css">
	.st0{fill:#F7F8F8;}
	.st1{fill:#4285F4;}
	.st2{fill:#34A853;}
	.st3{fill:#FBBC05;}
	.st4{fill:#EB4335;}
</style>
<rect class="st0" width="128" height="128"/>
<g>
	<path class="st1" d="M104.9,64.9c0-3.4-0.3-5.9-0.9-8.5H64.8v15.5h23c-0.5,3.8-3,9.6-8.5,13.5l-0.1,0.5l12.4,9.6l0.9,0.1
		C100.3,88.3,104.9,77.6,104.9,64.9"/>
	<path class="st2" d="M64.8,105.7c11.3,0,20.7-3.7,27.6-10.1L79.3,85.4c-3.5,2.5-8.2,4.2-14.5,4.2c-11,0-20.4-7.3-23.7-17.3l-0.5,0
		l-12.9,10l-0.2,0.5C34.4,96.3,48.5,105.7,64.8,105.7"/>
	<path class="st3" d="M41.1,72.2c-0.9-2.6-1.4-5.4-1.4-8.2c0-2.9,0.5-5.7,1.3-8.2l0-0.6L28,45.1l-0.4,0.2c-2.8,5.7-4.4,12-4.4,18.7
		s1.6,13.1,4.4,18.7L41.1,72.2"/>
	<path class="st4" d="M64.8,38.4c7.8,0,13.1,3.4,16.1,6.2l11.8-11.5c-7.2-6.7-16.6-10.8-27.9-10.8c-16.3,0-30.4,9.4-37.3,23
		l13.5,10.5C44.4,45.7,53.8,38.4,64.8,38.4"/>
</g>
</svg>
