<svg width="34" height="34" viewBox="0 0 34 34" fill="none" xmlns="http://www.w3.org/2000/svg">
<path d="M11.201 15.6304C10.5024 15.6328 9.81612 15.8149 9.20826 16.1593C10.0641 13.9441 11.4835 11.9908 13.326 10.4926C13.4315 10.4058 13.5187 10.2991 13.5829 10.1785C13.6471 10.058 13.6869 9.92597 13.7 9.79004C13.7132 9.6541 13.6995 9.51691 13.6596 9.38629C13.6197 9.25567 13.5545 9.13418 13.4677 9.02875C13.3809 8.92333 13.2741 8.83604 13.1536 8.77187C13.033 8.70769 12.901 8.66789 12.7651 8.65474C12.6292 8.64158 12.492 8.65533 12.3613 8.6952C12.2307 8.73506 12.1092 8.80027 12.0038 8.88709C8.22603 11.9565 6.54492 16.2065 6.54492 18.8415C6.55143 19.7732 6.82908 20.6829 7.34396 21.4594C7.85884 22.2359 8.58868 22.8457 9.44437 23.2143C9.99815 23.4826 10.6046 23.6245 11.2199 23.6299C11.7615 23.6562 12.3028 23.5722 12.811 23.3831C13.3192 23.194 13.7837 22.9036 14.1763 22.5296C14.5689 22.1556 14.8815 21.7058 15.0951 21.2074C15.3087 20.709 15.4188 20.1724 15.4188 19.6301C15.4188 19.0879 15.3087 18.5513 15.0951 18.0529C14.8815 17.5545 14.5689 17.1046 14.1763 16.7307C13.7837 16.3567 13.3192 16.0663 12.811 15.8772C12.3028 15.688 11.7615 15.6041 11.2199 15.6304H11.201Z" fill="#7F54B3"/>
<path d="M21.7223 15.6308C21.0235 15.6323 20.337 15.8145 19.7295 16.1597C20.585 13.9468 22.0006 11.9941 23.8378 10.493C23.9528 10.4101 24.0496 10.3046 24.1223 10.1829C24.195 10.0612 24.242 9.92587 24.2604 9.78532C24.2789 9.64477 24.2683 9.50194 24.2295 9.36561C24.1907 9.22929 24.1243 9.10235 24.0346 8.99261C23.9449 8.88287 23.8337 8.79266 23.7078 8.72752C23.5819 8.66238 23.444 8.62369 23.3026 8.61384C23.1612 8.60399 23.0192 8.62318 22.8855 8.67023C22.7518 8.71728 22.6291 8.7912 22.5251 8.88743C18.7473 11.9569 17.0662 16.2069 17.0662 18.8419C17.0706 19.763 17.3402 20.6634 17.8426 21.4354C18.345 22.2075 19.0591 22.8186 19.8995 23.1958C20.4673 23.4719 21.0909 23.6141 21.7223 23.6113C22.2639 23.6376 22.8052 23.5537 23.3134 23.3646C23.8216 23.1755 24.286 22.8851 24.6787 22.5111C25.0713 22.1371 25.3839 21.6872 25.5974 21.1888C25.811 20.6904 25.9211 20.1538 25.9211 19.6116C25.9211 19.0694 25.811 18.5328 25.5974 18.0344C25.3839 17.5359 25.0713 17.0861 24.6787 16.7121C24.286 16.3381 23.8216 16.0477 23.3134 15.8586C22.8052 15.6695 22.2639 15.5856 21.7223 15.6119V15.6308Z" fill="#7F54B3"/>
</svg>
