<svg width="413" height="160" viewBox="0 0 413 160" fill="none" xmlns="http://www.w3.org/2000/svg">
<path d="M13.1775 51.857C19.9515 43.2475 30.9132 38.1834 41.6962 34.2748L43.5129 33.6271C54.7945 29.6487 66.3638 26.5068 78.0437 23.7419C84.2921 22.257 90.5581 20.8672 96.8286 19.5022L101.744 18.4375C108.125 17.0544 114.52 15.6726 120.927 14.2921C127.2 12.9411 133.475 11.6019 139.753 10.2745C147.793 8.5789 155.84 6.91862 163.893 5.29359C170.182 4.02724 176.476 2.7938 182.777 1.59326C190.849 0.0571446 198.931 -1.41277 207.023 -2.81644C213.348 -3.90967 219.677 -4.95272 226.012 -5.94559C234.136 -7.2118 242.274 -8.37496 250.427 -9.43504C255.959 -10.1589 261.499 -10.8246 267.046 -11.432L269.574 -11.7039C293.401 -14.2286 317.912 -15.4028 340.349 -8.98905L340.955 -8.81253C341.256 -8.72572 341.557 -8.63892 341.859 -8.54506C345.987 -7.32283 350.017 -5.73658 353.907 -3.80315C360.833 -0.316868 366.887 4.37972 370.767 10.559C376.847 20.2518 376.812 32.4112 373.946 43.5095C371.079 54.6079 365.649 65.1499 361.256 75.9132C359.968 79.0662 358.794 82.3078 357.752 85.6014C351.254 106.251 350.32 128.936 364.098 145.148C365.901 147.206 367.801 149.168 369.789 151.026C372.984 154.084 376.223 157.133 378.69 160.714C384.442 169.046 385.444 179.422 385.742 189.398C386.124 202.666 385.028 217.233 375.097 227.393C364.794 237.942 347.907 240.612 332.655 240.305C308.947 239.858 286.064 234.004 263.157 229.142C240.25 224.28 216.469 220.355 192.901 223.799C187.838 224.541 182.839 225.662 177.941 227.152V227.152C171.406 229.107 165.097 231.789 159.121 235.153C150.5 240.071 143.009 246.461 138.034 254.342C127.354 271.198 102.504 276.896 82.8428 271.521C64.0814 266.392 49.7042 250.877 47.2997 233.181C44.6429 213.479 55.4604 194.889 65.0499 176.098C66.2133 173.821 67.3555 171.54 68.4552 169.253C69.0692 167.976 69.6673 166.699 70.2495 165.423C71.2668 163.173 72.2357 160.921 73.1237 158.658C77.6557 147.06 79.9132 133.715 73.4063 123.291C69.7583 117.456 64.1238 113.528 57.6254 110.389C43.066 103.361 24.1911 100.302 13.8046 88.6233C4.85453 78.5581 4.58435 62.7987 13.1775 51.857Z" fill="white" fill-opacity="0.65"/>
<path d="M187.128 114.568C158.128 135.877 133.962 153.537 126.417 159.07H126.771L148.344 145.531L131.251 159.07H132.547L149.169 146.826L135.966 159.07H137.38C148.226 150.476 167.559 135.171 189.721 117.747L187.128 114.568Z" fill="#C498D9"/>
<path d="M205.517 99.4991L208.347 102.089C245.834 72.4212 289.569 38.1618 314.796 18.7363C289.097 37.9263 244.183 71.1262 205.517 99.4991Z" fill="#C498D9"/>
<path d="M321.633 14.0276C321.515 13.7921 321.28 13.6744 321.162 13.6744H321.044C320.926 13.6744 320.926 13.6744 320.808 13.6744C320.454 13.5566 320.219 13.5566 319.983 13.5566C319.394 13.5566 318.922 13.5566 318.45 13.6744C317.507 13.7921 316.564 14.0276 315.621 14.3808C313.735 14.9694 312.085 15.7935 310.316 16.6176C309.963 16.7354 309.609 17.0885 309.609 17.5595C309.491 18.2658 309.963 18.8545 310.67 18.9722H310.788C311.024 18.9722 311.377 18.9722 311.613 19.09C311.967 19.2077 312.203 19.2077 312.438 19.3254C313.028 19.5609 313.381 19.7963 313.617 20.0318C313.853 20.1495 313.971 20.6204 314.089 21.2091V22.0332C314.089 22.2687 313.971 22.6218 313.971 22.8573V22.975C313.853 23.3282 313.971 23.7991 314.324 24.0346C314.914 24.5055 315.621 24.3878 316.093 23.9169C316.211 23.7991 316.329 23.5637 316.564 23.446C316.564 23.446 316.564 23.446 316.564 23.3282C317.625 22.1509 318.686 20.8559 319.629 19.4431C320.219 18.619 320.69 17.7949 321.162 16.9708C321.398 16.4999 321.633 16.029 321.751 15.5581C321.987 14.6162 321.633 14.0276 321.633 14.0276Z" fill="#674399"/>
<path d="M314.678 18.8548C315.032 18.6194 315.268 18.3839 315.503 18.1484C315.268 18.3839 315.032 18.6194 314.678 18.8548Z" fill="#004F82"/>
<path d="M231.806 136.938C231.806 116.924 220.725 100.913 205.282 98.2051C203.042 105.622 191.018 105.858 188.424 98.5583L188.306 98.2051C171.095 101.737 159.071 117.866 157.303 136.467C154.709 163.192 156.713 158.954 156.713 158.954H232.041" fill="#7F54B3"/>
<path d="M178.876 125.519C178.994 126.931 178.758 128.226 178.758 129.639L178.404 133.76L177.697 141.883L176.872 150.006C176.636 152.714 176.282 155.422 175.693 158.13C175.693 158.247 175.575 158.247 175.457 158.247C175.339 158.247 175.339 158.13 175.339 158.012C175.221 155.304 175.457 152.596 175.693 149.889L176.4 141.765L177.107 133.642L177.461 129.521C177.579 128.226 177.697 126.814 178.05 125.519C178.168 125.283 178.286 125.165 178.522 125.283C178.64 125.283 178.758 125.401 178.876 125.519ZM204.81 92.0832C205.046 92.7896 205.046 93.6137 205.046 94.3201C205.046 95.0265 205.046 95.8506 205.164 96.4392C205.282 97.0279 205.635 97.4988 206.107 97.852C206.343 97.9697 206.578 98.0874 206.932 98.2052C207.286 98.3229 207.757 98.4406 208.111 98.5584C211.058 99.6179 213.534 101.266 216.009 103.032C218.367 104.798 220.607 106.799 222.729 109.036C224.733 111.273 226.501 113.746 227.68 116.571C227.68 116.689 227.68 116.807 227.562 116.807C227.444 116.807 227.326 116.807 227.326 116.689C225.676 114.216 223.907 111.98 221.903 109.743C219.899 107.624 217.66 105.622 215.302 103.974C214.123 103.15 212.944 102.326 211.647 101.619C210.351 100.913 209.054 100.207 207.757 99.7357C207.404 99.6179 207.05 99.5002 206.814 99.3825C206.343 99.2647 205.989 99.147 205.635 98.9116C204.928 98.4406 204.339 97.6165 204.103 96.7924C203.985 96.3215 203.985 95.8506 203.985 95.4974V94.4378C203.985 93.7314 203.867 92.9073 204.221 92.2009C204.339 91.9655 204.574 91.8477 204.81 92.0832C204.692 91.9655 204.692 91.8477 204.81 92.0832Z" fill="#3C434A"/>
<path d="M207.993 60.5309C209.408 63.2387 210.233 66.2997 210.94 69.2429C211.647 72.1862 212.119 75.2472 212.237 78.4259C212.237 81.4869 211.765 84.7833 210.115 87.4911C209.29 88.9039 208.111 90.0812 206.814 91.023C205.4 91.9648 203.867 92.4358 202.335 92.7889C199.152 93.3776 195.851 92.9067 193.022 91.4939C190.193 90.1989 187.599 88.1975 185.477 85.9606C181.115 81.4869 178.168 75.9536 176.282 70.1848C176.282 70.0671 176.282 69.9493 176.4 69.9493C176.518 69.9493 176.636 69.9493 176.636 70.0671C179.229 75.6004 182.176 80.8982 186.42 85.2542C188.542 87.3734 190.9 89.257 193.611 90.4343C196.323 91.6116 199.27 92.0826 202.099 91.4939C203.513 91.1407 204.928 90.6698 206.107 89.8457C207.286 89.0216 208.347 87.962 209.054 86.7847C210.587 84.3124 211.058 81.2514 211.058 78.3082C211.058 75.3649 210.587 72.3039 209.879 69.3607C209.172 66.4174 208.111 63.5919 207.286 60.6487C207.168 60.4132 207.286 60.1777 207.522 60.1777C207.757 60.2955 207.875 60.2955 207.993 60.5309Z" fill="#3C434A"/>
<path d="M190.075 51.7007C199.505 47.9334 207.757 50.0525 207.168 54.5263C206.696 58.4114 187.717 59.7064 185.477 65.122C184.063 68.6539 186.185 73.9517 187.953 77.3659C189.014 79.3673 188.542 81.7219 187.01 83.2524L185.359 85.2538C174.868 74.8936 165.437 61.4723 190.075 51.7007ZM201.627 72.1858C202.217 73.1276 202.688 74.1872 203.16 75.129C203.514 76.1886 203.985 77.2482 204.221 78.3077C204.221 78.5432 204.103 78.7786 203.867 78.7786C203.631 78.7786 203.514 78.7786 203.396 78.5432C202.806 77.6013 202.453 76.5418 201.981 75.4822C201.627 74.4226 201.274 73.3631 201.038 72.3035C201.038 72.1858 201.156 71.9503 201.274 71.9503C201.392 72.068 201.509 72.068 201.627 72.1858Z" fill="#3C434A"/>
<path d="M207.286 73.1274C207.875 72.8919 208.229 72.1855 207.993 71.5969L207.286 69.8309C207.05 69.2423 206.343 68.8891 205.753 69.1245C205.164 69.36 204.81 70.0664 205.046 70.655L205.753 72.421C205.989 73.0096 206.696 73.3628 207.286 73.1274ZM195.733 77.6011C196.323 77.3656 196.676 76.6593 196.44 76.0706L195.733 74.3047C195.497 73.716 194.79 73.3628 194.201 73.5983C193.611 73.8337 193.258 74.5401 193.493 75.1288L194.201 76.8947C194.436 77.6011 195.144 77.8366 195.733 77.6011Z" fill="#3C434A"/>
<path d="M204.928 82.6636C204.81 83.1346 204.457 83.4878 203.985 83.8409C203.513 84.1941 202.806 84.4296 202.335 84.4296C201.981 84.4296 201.627 84.3119 201.274 84.0764C201.038 83.8409 200.684 83.9587 200.448 84.1941C200.213 84.4296 200.331 84.7828 200.566 85.0182C201.038 85.3714 201.745 85.4892 202.335 85.4892C203.16 85.4892 203.985 85.2537 204.692 84.7828C205.4 84.3119 205.871 83.7232 206.107 82.8991C206.225 82.5459 205.989 82.3105 205.753 82.1927C205.517 82.075 205.046 82.3105 204.928 82.6636Z" fill="#3C434A"/>
<path d="M192.904 70.0666C192.668 70.0666 192.314 70.3021 191.961 70.4198C191.607 70.5375 191.253 70.773 190.9 71.0085C190.546 71.2439 190.31 71.4794 189.957 71.7148C189.721 71.9503 189.367 72.1858 189.249 72.5389C189.132 72.7744 188.896 72.7744 188.66 72.6567C188.542 72.5389 188.424 72.4212 188.542 72.1858C188.778 71.1262 189.603 70.5375 190.31 69.9489C190.664 69.7134 191.136 69.478 191.607 69.3602C192.079 69.2425 192.55 69.1248 193.14 69.2425C193.375 69.2425 193.493 69.478 193.375 69.7134C193.257 69.8312 193.14 69.9489 192.904 70.0666ZM202.217 65.5929C202.57 65.122 203.042 64.8865 203.396 64.651C203.867 64.4156 204.339 64.2978 204.692 64.2978C205.635 64.1801 206.578 64.1801 207.521 64.7688C207.757 64.8865 207.757 65.122 207.639 65.3574C207.521 65.4751 207.404 65.5929 207.168 65.4751C206.814 65.3574 206.461 65.3574 206.107 65.3574C205.753 65.3574 205.282 65.3574 204.928 65.4751C204.574 65.5929 204.103 65.5929 203.749 65.7106C203.396 65.8283 203.042 65.9461 202.806 66.0638L202.688 66.1815C202.452 66.2993 202.217 66.1815 202.217 66.0638V65.5929Z" fill="#3C434A"/>
<path d="M208.111 54.4084C198.68 37.9262 167.205 50.9942 175.103 71.2438Z" fill="#674399"/>
<path d="M188.424 92.4347C188.66 93.3765 188.778 94.3184 188.896 95.3779C188.896 96.3198 189.014 97.2616 189.014 98.3212V98.0857C189.249 98.5566 189.485 99.1453 189.721 99.7339C189.957 100.205 190.31 100.793 190.664 101.147C191.018 101.618 191.489 101.971 191.961 102.324C192.432 102.677 192.904 103.03 193.493 103.266C193.611 103.384 193.611 103.501 193.611 103.619C193.611 103.737 193.493 103.737 193.375 103.737C192.668 103.619 192.079 103.501 191.489 103.148C190.9 102.795 190.31 102.442 189.839 101.853C189.367 101.382 189.014 100.793 188.66 100.205C188.306 99.6162 188.071 99.0275 187.835 98.3212V98.0857C187.835 97.1439 187.835 96.202 187.953 95.1425C188.071 94.2006 188.188 93.2588 188.424 92.1992C188.188 92.4347 188.306 92.3169 188.424 92.4347Z" fill="#3C434A"/>
<path d="M181.92 29.8538C181.955 29.6184 181.884 29.4771 181.814 29.3358L181.637 28.9591L180.293 26.1689L179.951 25.4861C179.81 25.2741 179.715 25.0387 179.645 24.8268C179.503 24.4147 179.538 23.8967 179.715 23.52L181.059 20.7298L181.719 19.317C181.79 19.1757 181.861 19.0462 181.896 18.8696C181.932 18.7637 181.967 18.6577 181.896 18.5282C181.861 18.3516 181.684 18.2574 181.554 18.2574C181.319 18.2221 181.177 18.2928 181.036 18.3634L180.647 18.54L177.853 19.8821L177.169 20.2235C176.957 20.3648 176.721 20.459 176.509 20.5296C176.061 20.6356 175.507 20.6356 175.13 20.459L172.3 19.1522L170.886 18.4929C170.78 18.4576 170.65 18.3869 170.473 18.3516C170.402 18.3516 170.261 18.3516 170.167 18.3869C170.025 18.4576 169.954 18.5989 169.931 18.693C169.896 18.9285 169.966 19.0698 170.037 19.2111L170.214 19.5878L171.628 22.378C171.864 22.8254 172.147 23.3081 172.312 23.7554C172.454 24.2381 172.489 24.7561 172.277 25.2388L170.791 27.8878L170.108 29.2652C170.072 29.3712 170.002 29.5007 169.966 29.6773C169.966 29.7479 169.931 29.8538 169.966 29.948C170.002 30.054 170.143 30.1246 170.237 30.1599C170.414 30.1953 170.544 30.1246 170.685 30.054L171.063 29.8774L173.892 28.5706L174.576 28.2292C174.811 28.1232 175.059 28.0173 175.259 27.9584C175.743 27.8171 176.261 27.8524 176.639 28.029L179.432 29.3712L180.847 30.0304C180.988 30.1011 181.118 30.1717 181.295 30.207C181.401 30.2424 181.507 30.2777 181.637 30.207C181.814 30.1717 181.92 29.9951 181.92 29.8538Z" fill="#DCDCDE"/>
<path d="M305.365 72.5384C305.247 72.1852 305.012 72.1852 304.894 72.0675C304.54 71.9498 304.422 71.9498 304.186 71.832L301.711 70.8902C301.239 70.7725 301.004 70.6547 300.768 70.4193C300.532 70.1838 300.296 69.8306 300.178 69.5952L299.353 67.1228L299.117 66.5342C299 66.2987 299 66.0633 298.646 65.7101C298.528 65.5923 298.41 65.5923 298.174 65.4746C298.057 65.4746 297.703 65.4746 297.585 65.5923C297.231 65.7101 297.231 65.9455 297.113 66.0633C296.996 66.4164 296.996 66.5342 296.878 66.7696L296.052 69.242C295.935 69.7129 295.817 69.9483 295.581 70.1838C295.345 70.4193 294.992 70.6547 294.756 70.7725L292.28 71.7143L291.691 71.9498C291.573 71.9498 291.337 72.0675 290.983 72.303C290.866 72.4207 290.748 72.5384 290.748 72.6561C290.63 72.7739 290.63 73.0093 290.748 73.1271C290.866 73.3625 291.101 73.3625 291.219 73.4803C291.573 73.598 291.691 73.598 291.927 73.7157L294.402 74.4221C294.756 74.5398 295.109 74.6576 295.463 74.893C295.817 75.1285 296.052 75.4817 296.288 75.8349L296.996 78.5426L297.231 79.1313C297.349 79.249 297.349 79.6022 297.585 79.8377C297.703 79.9554 297.821 80.0731 297.939 80.0731C298.057 80.1909 298.292 80.1909 298.41 80.0731C298.646 79.8377 298.646 79.7199 298.764 79.6022C298.882 79.249 298.882 79.1313 299 78.8958L299.943 76.4235C300.061 75.9526 300.178 75.7171 300.414 75.4817C300.65 75.2462 301.004 75.0107 301.239 74.893L303.715 74.0689L304.304 73.8334C304.54 73.8334 304.776 73.8334 305.13 73.4803C305.247 73.4803 305.247 73.3625 305.365 73.1271C305.483 73.0093 305.483 72.6561 305.365 72.5384Z" fill="#DCDCDE"/>
<path d="M270.59 86.3145C270.472 85.9613 270.118 85.8436 269.764 85.9613L267.171 87.2564L264.577 85.9613C264.342 85.8436 264.224 85.8436 263.988 85.9613C263.752 86.0791 263.634 86.4323 263.752 86.7855L265.049 89.4932C264.577 90.4351 264.224 91.3769 263.87 92.3188V92.4365C263.752 92.5542 263.752 92.672 263.87 92.7897C263.988 92.9074 264.224 93.0251 264.46 92.9074C265.403 92.4365 266.228 91.8478 267.171 91.2592C268.232 91.8478 269.057 92.4365 270 93.0251H270.354C270.59 92.9074 270.707 92.672 270.59 92.4365C270.118 91.4947 269.764 90.5528 269.411 89.611C269.882 88.6691 270.236 87.7273 270.707 86.9032C270.707 86.6677 270.707 86.55 270.59 86.3145Z" fill="#DCDCDE"/>
<path d="M274.362 21.3263C274.244 20.9731 273.89 20.8553 273.537 20.9731L270.943 22.2681L268.35 20.9731C268.114 20.8553 267.996 20.8553 267.76 20.9731C267.525 21.0908 267.407 21.444 267.525 21.7972L268.821 24.505C268.35 25.4468 267.996 26.3886 267.642 27.3305V27.4482C267.525 27.5659 267.525 27.6837 267.642 27.8014C267.76 27.9191 267.996 28.0369 268.232 27.9191C269.175 27.4482 270 26.8596 270.943 26.2709C272.004 26.8596 272.829 27.3305 273.772 28.0369H274.126C274.362 27.9191 274.48 27.6837 274.362 27.4482C273.89 26.5064 273.537 25.5645 273.183 24.6227C273.655 23.6809 274.008 22.739 274.48 21.9149C274.48 21.6794 274.48 21.5617 274.362 21.3263Z" fill="#DCDCDE"/>
<path d="M328.805 54.6895C328.687 54.3363 328.334 54.2186 327.98 54.3363L325.386 55.6314L322.793 54.3363C322.557 54.2186 322.439 54.2186 322.204 54.3363C321.968 54.4541 321.85 54.8073 321.968 55.1605L323.264 57.8682C322.793 58.8101 322.439 59.7519 322.086 60.6938V60.8115C321.968 60.9292 321.968 61.047 322.086 61.1647C322.204 61.2824 322.439 61.4001 322.675 61.2824C323.618 60.8115 324.443 60.2228 325.386 59.6342C326.447 60.2228 327.273 60.6938 328.216 61.4001H328.569C328.805 61.2824 328.923 61.047 328.805 60.8115C328.334 59.8697 327.98 58.9278 327.626 57.986C328.098 57.0441 328.451 56.1023 328.923 55.2782C328.923 55.0427 328.923 54.925 328.805 54.6895Z" fill="#DCDCDE"/>
<path d="M234.694 31.4036C234.576 31.0505 234.34 31.0505 234.222 30.9327C233.869 30.815 233.751 30.815 233.515 30.6973L231.039 29.7554C230.568 29.6377 230.332 29.52 230.096 29.2845C229.861 29.049 229.625 28.6959 229.507 28.4604L228.682 25.9881L228.446 25.3994C228.328 25.164 228.328 24.9285 227.974 24.5753C227.857 24.4576 227.739 24.4576 227.503 24.3398C227.385 24.3398 227.031 24.3398 226.913 24.4576C226.56 24.5753 226.56 24.8108 226.442 24.9285C226.324 25.2817 226.324 25.3994 226.206 25.6349L225.381 28.1072C225.263 28.5781 225.145 28.8136 224.909 29.049C224.674 29.2845 224.32 29.52 224.084 29.6377L221.609 30.5795L221.019 30.815C220.901 30.815 220.666 30.9327 220.312 31.1682C220.194 31.2859 220.076 31.4036 220.076 31.5214C219.958 31.6391 219.958 31.8746 220.076 31.9923C220.194 32.2278 220.43 32.2278 220.548 32.3455C220.901 32.4632 221.019 32.4632 221.255 32.5809L223.731 33.2873C224.084 33.4051 224.438 33.5228 224.792 33.7582C225.145 33.9937 225.381 34.3469 225.617 34.7001L226.324 37.4079L226.56 37.9965C226.678 38.1143 226.678 38.4674 226.913 38.7029C227.031 38.8206 227.149 38.9384 227.267 38.9384C227.385 39.0561 227.621 39.0561 227.739 38.9384C227.974 38.7029 227.974 38.5852 228.092 38.4674C228.21 38.1143 228.21 37.9965 228.328 37.7611L229.271 35.2887C229.389 34.8178 229.507 34.5824 229.743 34.3469C229.978 34.1114 230.332 33.876 230.568 33.7582L233.043 32.9341L233.633 32.6987C233.869 32.6987 234.104 32.6987 234.458 32.3455C234.576 32.3455 234.576 32.2278 234.694 31.9923C234.812 31.8746 234.812 31.5214 234.694 31.4036Z" fill="#DCDCDE"/>
<path d="M150.348 60.1771C150.23 59.8239 149.994 59.8239 149.876 59.7062C149.523 59.5884 149.405 59.5884 149.169 59.4707L146.693 58.5289C146.222 58.4111 145.986 58.2934 145.75 58.0579C145.514 57.8225 145.279 57.4693 145.161 57.2338L144.336 54.7615L144.1 54.1729C143.982 53.9374 143.982 53.7019 143.628 53.3487C143.51 53.231 143.393 53.231 143.157 53.1133C143.039 53.1133 142.685 53.1133 142.567 53.231C142.214 53.3487 142.214 53.5842 142.096 53.7019C141.978 54.0551 141.978 54.1729 141.86 54.4083L141.035 56.8806C140.917 57.3516 140.799 57.587 140.563 57.8225C140.328 58.0579 139.974 58.2934 139.738 58.4111L137.263 59.353L136.673 59.5884C136.555 59.5884 136.32 59.7062 135.966 59.9416C135.848 60.0594 135.73 60.1771 135.73 60.2948C135.612 60.4125 135.612 60.648 135.73 60.7657C135.848 61.0012 136.084 61.0012 136.202 61.1189C136.555 61.2367 136.673 61.2367 136.909 61.3544L139.385 62.0608C139.738 62.1785 140.092 62.2962 140.445 62.5317C140.799 62.7671 141.035 63.1203 141.271 63.4735L141.978 66.1813L142.214 66.77C142.332 66.8877 142.332 67.2409 142.567 67.4763C142.685 67.5941 142.803 67.7118 142.921 67.7118C143.039 67.8295 143.275 67.8295 143.393 67.7118C143.628 67.4763 143.628 67.3586 143.746 67.2409C143.864 66.8877 143.864 66.77 143.982 66.5345L144.925 64.0622C145.043 63.5913 145.161 63.3558 145.397 63.1203C145.632 62.8849 145.986 62.6494 146.222 62.5317L148.697 61.7076L149.287 61.4721C149.523 61.4721 149.758 61.4721 150.112 61.1189C150.23 61.1189 150.23 61.0012 150.348 60.7657C150.466 60.648 150.466 60.2948 150.348 60.1771Z" fill="#DCDCDE"/>
<path d="M136.933 32.111C137.039 31.8991 136.933 31.7931 136.933 31.6872C136.826 31.4753 136.767 31.4164 136.72 31.2633L136.025 29.7093C135.86 29.4385 135.813 29.2855 135.813 29.0736C135.813 28.8617 135.872 28.5909 135.919 28.4378L136.661 26.9427L136.826 26.5659C136.885 26.4011 136.991 26.2951 136.991 25.9773C136.991 25.8713 136.933 25.8124 136.885 25.6594C136.826 25.6005 136.673 25.4475 136.567 25.4475C136.355 25.3415 136.249 25.4475 136.143 25.4475C135.931 25.5534 135.872 25.6123 135.718 25.6594L134.221 26.4011C133.95 26.5659 133.797 26.613 133.585 26.613C133.372 26.613 133.101 26.5541 132.948 26.5071L131.392 25.8124L131.015 25.6476C130.956 25.5888 130.803 25.5417 130.531 25.4828C130.425 25.4828 130.319 25.4828 130.26 25.5417C130.154 25.5417 130.048 25.6476 130.048 25.7536C129.989 25.9184 130.107 26.0244 130.107 26.1303C130.213 26.3422 130.272 26.4011 130.319 26.5541L131.121 27.9904C131.227 28.2024 131.333 28.4143 131.392 28.6851C131.451 28.9558 131.392 29.2148 131.333 29.4856L130.425 31.0397L130.26 31.4164C130.26 31.5223 130.095 31.6872 130.095 31.8991C130.095 32.005 130.095 32.111 130.154 32.1699C130.154 32.2758 130.26 32.3818 130.366 32.3818C130.579 32.3818 130.638 32.3229 130.744 32.3229C130.956 32.217 131.015 32.1581 131.168 32.111L132.724 31.4164C132.995 31.2516 133.148 31.2045 133.361 31.2045C133.573 31.2045 133.844 31.2633 133.997 31.3104L135.494 32.0521L135.872 32.217C135.978 32.3229 136.084 32.4289 136.402 32.4289C136.461 32.4877 136.508 32.4289 136.673 32.37C136.779 32.3818 136.933 32.217 136.933 32.111Z" fill="#DCDCDE"/>
<path d="M216.127 51.3474C216.009 51.2297 216.009 51.112 215.891 51.112C215.302 50.8765 214.712 50.5233 214.123 50.2879C213.534 50.0524 212.944 49.8169 212.237 49.8169L211.294 49.6992C211.058 49.6992 210.704 49.8169 210.351 49.8169C210.115 49.8169 209.761 49.9347 209.408 49.9347L208.465 50.1701C205.871 50.8765 203.631 52.0538 201.509 53.4666C199.388 54.8793 197.383 56.4098 195.497 58.058C193.611 59.7063 191.843 61.4722 190.193 63.3559L190.075 63.4736L184.298 66.4169C180.762 68.1828 177.343 69.9488 173.925 71.8325C173.807 71.9502 173.689 72.0679 173.807 72.3034C173.807 72.5388 174.042 72.6566 174.278 72.5388C177.815 70.8906 181.233 69.2424 184.77 67.4764L195.262 62.2963L205.635 57.1162C208.936 55.3503 212.355 53.702 215.538 51.8184H215.656C215.773 51.8184 216.127 51.7006 216.127 51.5829C216.127 51.5829 216.127 51.4652 216.127 51.3474Z" fill="#C498D9"/>
<path d="M295.817 111.744H245.716C242.651 111.744 240.058 113.981 239.704 117.042L234.517 154.127H208.582C206.461 154.127 204.81 155.775 204.81 157.894V158.601H233.928H258.094H296.288L301.829 118.69C302.3 115.041 299.471 111.744 295.817 111.744Z" fill="#C498D9"/>
<path d="M113.661 58.2771C113.401 57.9357 113.154 57.8533 112.894 57.7709L112.211 57.5119L107.106 55.7224L105.833 55.2986C105.409 55.2161 104.984 55.0395 104.642 54.8747C103.959 54.5333 103.369 53.8505 103.11 53.1794L101.318 48.0817L100.387 45.527C100.304 45.268 100.222 45.0207 100.045 44.7617C99.9624 44.5969 99.8798 44.4203 99.6205 44.3379C99.3612 44.1731 99.0193 44.2555 98.8543 44.4203C98.5124 44.6793 98.4299 44.9265 98.3474 45.1855L98.088 45.8684L96.2962 50.9661L95.86 52.2376C95.7775 52.6614 95.6007 53.0852 95.4356 53.4266C95.0112 54.1095 94.3275 54.7923 93.6438 55.0395L88.5394 56.9115L85.9813 57.8415C85.8163 57.9239 85.5569 58.0063 85.2976 58.1829C85.2151 58.2653 85.0382 58.4419 84.9557 58.6068C84.8732 58.8658 84.9557 59.113 85.0382 59.2896C85.2976 59.631 85.5451 59.7134 85.8045 59.7958L86.4882 60.0548L91.6869 61.7502C92.5357 62.0092 93.4787 62.2564 94.245 62.5978C95.0112 63.0216 95.695 63.6221 96.0368 64.4697L97.4868 69.5674L98.3356 72.1222C98.4181 72.287 98.5006 72.546 98.6774 72.805C98.76 72.8874 98.8425 73.064 99.0193 73.1464C99.1843 73.2288 99.4437 73.1464 99.6205 73.064C99.8798 72.8992 99.9624 72.6402 100.045 72.3812L100.304 71.6983L102.179 66.6006L102.603 65.3291C102.768 64.9053 102.945 64.4815 103.11 64.1401C103.534 63.3748 104.218 62.7744 104.902 62.5272L110.006 60.7377L112.564 59.8076C112.824 59.7252 113.071 59.6428 113.33 59.4662C113.495 59.3838 113.672 59.3014 113.755 59.0424C113.92 58.7834 113.837 58.4419 113.661 58.2771Z" fill="#DCDCDE"/>
</svg>
