<svg width="154" height="110" viewBox="0 0 154 110" fill="none" xmlns="http://www.w3.org/2000/svg">
<path d="M95.5344 92.8497C95.5344 96.5754 92.4925 99.6971 88.6401 99.6971H51.8406C48.0897 99.6971 44.947 96.6763 44.947 92.8497V6.84789C44.947 3.12182 47.9883 0 51.8406 0H88.9449C92.6954 0 95.8382 3.02113 95.8382 6.84789V92.9506H95.5344V92.8497Z" fill="white"/>
<path d="M95.5007 0C99.2521 0 102.395 3.02113 102.395 6.84789V93.1517C102.395 96.8774 99.3531 100 95.5007 100H58.4983C54.7474 100 51.6047 96.9783 51.6047 93.1517V6.84789C51.6047 3.12182 54.6461 0 58.4983 0H95.5007Z" fill="#271B3D"/>
<path d="M98.8463 6.54585V92.8497C98.8463 94.1586 98.1368 95.1655 97.1234 95.7704C96.6159 95.9714 96.1092 96.1725 95.5006 96.1725H58.4983C58.0928 96.1725 57.6873 96.0724 57.2818 95.9714C55.9639 95.5685 55.1528 94.3605 55.1528 92.8497V6.84793C55.1528 5.33736 56.0653 4.22965 57.2818 3.7261C57.6873 3.62541 58.0928 3.52472 58.4983 3.52472H63.9727C64.6823 3.52472 65.1892 4.02818 65.1892 4.73312C65.1892 6.14299 66.4057 7.35148 67.825 7.35148H86.5798C87.9991 7.35148 89.2156 6.14299 89.2156 4.73312C89.2156 4.02818 89.7225 3.52472 90.4321 3.52472H95.6025V3.32324C96.2111 3.32324 96.7177 3.42403 97.2244 3.7261C98.1368 4.22965 98.8463 5.23667 98.8463 6.54585Z" fill="white"/>
<g filter="url(#filter0_d_7350_121144)">
<path d="M127.888 73.6459H100.111C97.8809 73.6459 96.0562 71.8332 96.0562 69.6177V35.8817C96.0562 33.6662 97.8809 31.8535 100.111 31.8535H127.888C130.119 31.8535 131.944 33.6662 131.944 35.8817V69.6177C131.944 71.8332 130.119 73.6459 127.888 73.6459Z" fill="white"/>
</g>
<path d="M120.792 61.0649H101.43C100.821 61.0649 100.415 60.5613 100.415 60.0578C100.415 59.4535 100.922 59.0508 101.43 59.0508H120.792C121.401 59.0508 121.806 59.5543 121.806 60.0578C121.806 60.5613 121.299 61.0649 120.792 61.0649Z" fill="#DCDCDE"/>
<path d="M109.945 66.8051H101.43C100.821 66.8051 100.415 66.3016 100.415 65.7981C100.415 65.2946 100.922 64.791 101.43 64.791H109.945C110.553 64.791 110.959 65.2946 110.959 65.7981C110.959 66.4024 110.553 66.8051 109.945 66.8051Z" fill="#DCDCDE"/>
<path d="M119.677 53.21L116.231 53.7136C116.028 53.7136 115.926 53.6128 115.825 53.5121L115.724 53.1093L113.493 44.4487L113.291 42.8374L111.06 52.9078L110.959 53.4114C110.959 53.6128 110.756 53.7136 110.553 53.6128L107.613 53.3107H107.31C107.107 53.3107 107.005 53.1093 107.005 52.9078L107.107 52.5051L109.336 38.205L109.438 37.6008C109.438 37.5001 109.539 37.3994 109.742 37.3994H116.737C116.838 37.3994 117.041 37.5001 117.041 37.6008L117.143 38.1043V38.205L119.981 52.5051V52.7064C119.981 53.0086 119.88 53.1093 119.677 53.21Z" fill="#DCDCDE"/>
<path d="M117.143 40.8235C116.23 40.4207 115.521 39.8165 114.912 39.0109C114.81 38.9102 114.912 38.8094 115.013 38.7087C115.115 38.608 115.216 38.7087 115.318 38.8094C115.825 39.6151 116.433 40.1186 117.244 40.4207C117.346 40.5214 117.447 40.6221 117.346 40.7228C117.346 40.7228 117.244 40.8235 117.143 40.8235Z" fill="#C3C4C7"/>
<path d="M109.539 40.8235C110.451 40.4207 111.161 39.8165 111.77 39.0109C111.871 38.9102 111.77 38.8094 111.669 38.7087C111.567 38.608 111.466 38.7087 111.364 38.8094C110.857 39.6151 110.249 40.1186 109.438 40.4207C109.336 40.5214 109.235 40.6221 109.336 40.7228C109.336 40.7228 109.438 40.8235 109.539 40.8235Z" fill="#C3C4C7"/>
<path d="M113.29 41.629C113.189 41.629 113.088 41.5283 113.088 41.4276V38.4065C113.088 38.3058 113.189 38.2051 113.29 38.2051C113.391 38.2051 113.493 38.3058 113.493 38.4065V41.4276C113.493 41.5283 113.391 41.629 113.29 41.629Z" fill="#C3C4C7"/>
<path d="M117.143 38.3061H109.336L109.438 37.7019C109.438 37.6012 109.539 37.5005 109.742 37.5005H116.737C116.839 37.5005 117.041 37.6012 117.041 37.7019L117.143 38.3061Z" fill="#C3C4C7"/>
<path d="M110.959 53.0083L110.857 53.5118C110.857 53.7133 110.654 53.814 110.451 53.7133L107.511 53.4111H107.208C107.005 53.4111 106.904 53.2097 106.904 53.0083L107.005 52.6055L110.959 53.0083Z" fill="#C3C4C7"/>
<path d="M119.677 53.2101L116.23 53.7136C116.028 53.7136 115.926 53.6129 115.825 53.5122L115.723 53.1094L119.88 52.7065V52.9079C119.981 53.0087 119.88 53.1094 119.677 53.2101Z" fill="#C3C4C7"/>
<g filter="url(#filter1_d_7350_121144)">
<path d="M53.8884 73.6459H26.1114C23.8809 73.6459 22.0562 71.8332 22.0562 69.6177V35.8817C22.0562 33.6662 23.8809 31.8535 26.1114 31.8535H53.8884C56.1189 31.8535 57.9437 33.6662 57.9437 35.8817V69.6177C57.9437 71.8332 56.1189 73.6459 53.8884 73.6459Z" fill="white"/>
<path d="M49.4786 41.4205C49.3772 41.3197 49.2759 41.219 49.1745 41.219C47.958 40.212 46.8428 39.205 45.6263 38.2986C45.5249 38.1979 45.3222 38.0972 45.1194 38.0972C44.207 38.0972 43.2947 38.0972 42.3822 38.0972C41.9768 38.0972 41.774 38.2986 41.774 38.7014C41.6726 39.6077 40.963 40.4134 40.0506 40.4134C39.0368 40.4134 38.2257 39.7084 38.1244 38.8021C38.0231 37.8958 37.8203 38.1979 34.9817 38.0972C34.6775 38.0972 34.4748 38.1979 34.1707 38.3993C32.9541 39.4063 31.7376 40.4134 30.6225 41.3197C30.5211 41.3197 30.5211 41.4205 30.4197 41.4205C30.0142 41.7225 30.0142 41.9239 30.3183 42.3268C30.9266 43.0317 31.5349 43.7367 32.0417 44.4416C32.3459 44.7437 32.4473 44.8444 33.0555 44.5423C33.3596 44.4416 33.8666 44.1394 34.4748 43.8374V52.8C34.4748 53.4043 34.5762 53.6057 35.2858 53.6057C38.3271 53.6057 41.3685 53.6057 44.4098 53.6057C45.1194 53.6057 45.2207 53.505 45.2207 52.8V43.8374C45.9305 44.1394 46.4373 44.4416 46.7414 44.5423C47.3497 44.8444 47.4511 44.7437 47.7552 44.4416C48.3635 43.7367 48.9718 43.0317 49.58 42.3268C49.8842 42.0246 49.8842 41.7225 49.4786 41.4205Z" fill="#DCDCDE"/>
<path d="M44.0042 44.4413L42.9904 45.1462C42.8891 45.247 42.5849 45.247 42.4835 45.1462L41.4697 44.4413C41.3684 44.3406 41.3684 44.2399 41.3684 44.2399V42.6286C41.3684 42.5279 41.4697 42.4272 41.5712 42.4272H43.9028C44.0042 42.4272 44.1055 42.5279 44.1055 42.6286V44.2399C44.1055 44.3406 44.0042 44.4413 44.0042 44.4413Z" fill="#C3C4C7"/>
<path d="M33.2582 44.5419C32.6499 44.844 32.5486 44.7433 32.2444 44.4412C31.6362 43.7363 31.0279 43.0314 30.521 42.3264C30.2168 41.9236 30.2168 41.7222 30.6224 41.42C30.7237 41.42 30.7237 41.3193 30.8251 41.3193L33.2582 44.5419Z" fill="#C3C4C7"/>
<path d="M49.6813 42.3265C49.0731 43.0315 48.4649 43.7364 47.8566 44.4414C47.5525 44.7434 47.4511 44.7434 46.8428 44.542L49.2759 41.2188C49.3772 41.3194 49.4786 41.4202 49.58 41.4202C49.9855 41.7223 49.9855 42.0244 49.6813 42.3265Z" fill="#C3C4C7"/>
</g>
<path d="M46.7923 61.0649H27.4295C26.821 61.0649 26.4153 60.5613 26.4153 60.0578C26.4153 59.4535 26.922 59.0508 27.4295 59.0508H46.7923C47.4009 59.0508 47.8057 59.5543 47.8057 60.0578C47.8057 60.5613 47.299 61.0649 46.7923 61.0649Z" fill="#DCDCDE"/>
<path d="M35.9448 66.8051H27.4295C26.821 66.8051 26.4153 66.3016 26.4153 65.7981C26.4153 65.2946 26.922 64.791 27.4295 64.791H35.9448C36.5533 64.791 36.959 65.2946 36.959 65.7981C36.959 66.4024 36.5533 66.8051 35.9448 66.8051Z" fill="#DCDCDE"/>
<g filter="url(#filter2_d_7350_121144)">
<path d="M95.8274 79.0002H58.1726C55.076 79.0002 52.5986 76.5394 52.5986 73.4633V27.6917C52.5986 24.6157 55.076 22.1548 58.1726 22.1548H95.8274C98.9237 22.1548 101.401 24.6157 101.401 27.6917V73.4633C101.277 76.5394 98.8003 79.0002 95.8274 79.0002Z" fill="white"/>
</g>
<path d="M86.0243 63.8787H59.8891C59.1459 63.8787 58.5266 63.2636 58.5266 62.5253C58.5266 61.787 59.1459 61.1719 59.8891 61.1719H86.0243C86.7675 61.1719 87.3869 61.787 87.3869 62.5253C87.3869 63.2636 86.7675 63.8787 86.0243 63.8787Z" fill="#674399"/>
<path d="M71.4085 71.6308H59.8891C59.1459 71.6308 58.5266 71.0155 58.5266 70.2772C58.5266 69.5391 59.1459 68.9238 59.8891 68.9238H71.4085C72.1516 68.9238 72.7709 69.5391 72.7709 70.2772C72.6471 71.0155 72.1516 71.6308 71.4085 71.6308Z" fill="#674399"/>
<path d="M92.3415 46.1608C92.2177 45.9147 92.0938 45.6686 91.9699 45.5456C91.4745 44.9304 90.8552 44.3151 89.7404 43.946C88.254 43.4538 87.0154 43.3308 85.9006 43.2078C85.6529 43.2078 85.2813 43.2078 85.0336 43.0847C81.6893 42.7156 78.9642 42.2234 73.0188 34.8409C72.3994 34.1026 72.1518 33.3645 71.4085 32.6262C70.7892 32.0109 69.6744 32.7492 68.312 32.9953C68.0642 33.1183 67.6926 33.1183 67.445 33.1183C66.3301 33.1183 65.0915 32.9953 63.9767 32.8722C62.3665 32.7492 63.3574 31.8879 61.3755 43.946C61.2517 44.8073 61.1278 45.7917 61.004 46.653C61.004 47.3912 60.8802 48.2525 61.004 48.9907C61.004 49.3599 61.004 49.852 61.4994 49.852C66.5779 50.3442 69.7983 50.0982 77.8495 50.0982C81.9369 50.0982 85.9006 50.0982 89.8643 49.3599L90.8552 49.2369C91.5983 49.1138 92.5893 48.8677 92.5893 48.2525C92.7132 47.6373 92.5893 46.899 92.3415 46.1608Z" fill="#C792E0"/>
<path d="M86.0245 43.2083L85.1575 45.9153C79.9552 45.6692 74.6291 42.4701 71.9041 38.2867C70.9132 36.8101 70.17 35.2107 69.0552 33.9802C69.0552 33.9802 68.6836 33.6111 68.312 33.242C69.6746 32.9959 70.6655 32.1346 71.4087 32.8728C71.9041 33.365 72.1518 33.8572 72.5234 34.3494C72.6473 34.4724 72.7712 34.7185 72.8951 34.8415L73.0188 34.9645C73.3905 35.4567 73.7621 35.8258 74.1337 36.195C74.2575 36.318 74.3814 36.4411 74.5053 36.5641C74.8768 37.0563 75.2484 37.4254 75.62 37.7945C75.7439 37.9176 75.8678 38.0406 75.9916 38.1637C76.3632 38.5328 76.7348 38.9019 77.1064 39.271C77.2303 39.3941 77.3541 39.5171 77.478 39.6401C77.8495 40.0093 78.2211 40.2554 78.5928 40.5014C78.7166 40.6244 78.9644 40.7476 79.0882 40.8706C79.336 41.1167 79.7075 41.2397 79.9552 41.4857C80.203 41.6089 80.3269 41.7319 80.5746 41.8549C81.1939 42.101 81.6893 42.347 82.1848 42.5932C82.4326 42.7162 82.5564 42.7162 82.8041 42.7162C83.6712 42.9623 84.4143 42.9623 85.2814 43.0853C85.4053 43.2083 85.653 43.2083 86.0245 43.2083Z" fill="#7F54B3"/>
<path d="M92.7132 48.4984C92.7132 49.1136 91.7167 49.3597 90.9692 49.4827L89.9728 49.6058C85.9866 50.344 81.876 50.344 77.8898 50.344C69.7931 50.344 66.5544 50.5901 61.4472 50.098C61.0735 50.098 61.0735 49.6058 60.949 49.2367C60.949 48.4984 60.949 47.6371 60.949 46.8988C63.814 47.1449 76.0213 47.7601 85.2393 46.7758C87.8551 46.5297 90.0973 46.1606 91.9658 45.5454C92.0903 45.7915 92.2149 45.9145 92.3394 46.1606C92.5886 46.8988 92.7132 47.6371 92.7132 48.4984Z" fill="#F2E9ED"/>
<path d="M92.3271 46.0292C90.4692 46.6444 88.4873 47.0135 86.5056 47.2596C86.1339 47.2596 85.8862 47.2596 85.6385 47.1366C85.5146 47.0135 85.3907 46.7674 85.3907 46.6444C85.3907 46.5214 85.3907 46.3983 85.3907 46.3983C85.2668 45.291 85.1431 44.1835 85.2668 43.0762C86.6294 43.1992 88.1158 43.3222 89.9738 43.9375C91.0885 44.3067 91.7078 44.7988 92.2033 45.537C92.0794 45.537 92.2033 45.7831 92.3271 46.0292Z" fill="#F2E9ED"/>
<path d="M72.895 34.7177C72.895 34.8407 72.895 34.8407 72.895 34.7177L71.5325 35.8251C71.5325 35.8251 71.4086 35.9482 71.2847 35.9482C71.1609 35.9482 71.037 35.9481 71.037 35.8251C70.9131 35.702 70.9131 35.456 71.037 35.3329L72.3995 34.2256C72.3995 34.2256 72.3995 34.2256 72.5234 34.2256C72.6472 34.4716 72.7711 34.5947 72.895 34.7177Z" fill="#F7EDF7"/>
<path d="M74.3814 36.5635C74.3814 36.5635 74.3814 36.6865 74.2575 36.6865C73.8859 37.1787 73.3905 37.5478 72.895 37.9169C72.895 37.9169 72.7712 38.04 72.6473 38.04C72.5234 38.04 72.3995 38.04 72.3995 37.9169C72.2757 37.7939 72.2757 37.5478 72.3995 37.4248C72.895 37.0556 73.2666 36.6865 73.762 36.1944C73.8859 36.0713 73.8859 36.0713 74.0098 36.0713C74.1336 36.3174 74.2575 36.4405 74.3814 36.5635Z" fill="#F7EDF7"/>
<path d="M75.8675 38.1631C75.8675 38.2861 75.8675 38.2861 75.7436 38.2861C75.2481 38.7783 74.8766 39.2705 74.3811 39.6396C74.2572 39.7627 74.2572 39.7627 74.1334 39.7627C74.0095 39.7627 74.0095 39.7627 73.8856 39.6396C73.7618 39.5165 73.7618 39.2705 73.8856 39.1474C74.3811 38.6552 74.7527 38.1631 75.2481 37.7939C75.2481 37.7939 75.372 37.6709 75.4959 37.6709C75.6197 37.9171 75.7436 38.0401 75.8675 38.1631Z" fill="#F7EDF7"/>
<path d="M77.4779 39.6396C77.4779 39.7627 77.4779 39.7627 77.354 39.7627C76.8586 40.1318 76.3631 40.624 75.8677 41.2392C75.7438 41.3622 75.7438 41.3622 75.6199 41.3622C75.4961 41.3622 75.4961 41.3622 75.3722 41.2392C75.2483 41.1161 75.2483 40.8701 75.3722 40.747C75.8677 40.1318 76.3631 39.6396 76.8586 39.1475H76.9824C77.1063 39.3935 77.2302 39.6396 77.4779 39.6396Z" fill="#F7EDF7"/>
<path d="M78.9644 40.9932C78.5928 41.6084 78.2213 42.2236 77.9736 42.8388C77.9736 42.9619 77.8497 42.9619 77.7258 42.9619H77.6019C77.4781 42.8388 77.3542 42.7158 77.4781 42.4697C77.8497 41.8545 78.0974 41.2393 78.4689 40.6241C78.4689 40.6241 78.4689 40.501 78.5928 40.501C78.7167 40.7471 78.8406 40.8702 78.9644 40.9932Z" fill="#F7EDF7"/>
<path d="M80.4507 41.8545L80.203 43.8232C80.203 43.9462 80.0791 44.0693 79.8315 44.0693C79.7076 44.0693 79.5837 43.8232 79.5837 43.7002L79.9553 41.6085C79.9553 41.6085 79.9553 41.4854 80.0791 41.4854C80.0791 41.6085 80.203 41.7315 80.4507 41.8545Z" fill="#F7EDF7"/>
<path d="M82.6801 42.7159C82.5562 43.331 82.5562 43.8233 82.4323 44.4384C82.4323 44.5615 82.3085 44.6846 82.0608 44.6846C82.0608 44.6846 82.0608 44.6846 81.937 44.6846C81.8131 44.6846 81.6892 44.4384 81.6892 44.3154C81.8131 43.7002 81.937 43.208 81.937 42.5928C82.1847 42.5928 82.4323 42.7159 82.6801 42.7159Z" fill="#F7EDF7"/>
<path d="M66.8257 40.993C68.2622 40.993 69.4268 39.8362 69.4268 38.4091C69.4268 36.9821 68.2622 35.8252 66.8257 35.8252C65.3891 35.8252 64.2246 36.9821 64.2246 38.4091C64.2246 39.8362 65.3891 40.993 66.8257 40.993Z" fill="white"/>
<path d="M66.8257 39.5165C67.4413 39.5165 67.9404 39.0207 67.9404 38.4091C67.9404 37.7975 67.4413 37.3018 66.8257 37.3018C66.21 37.3018 65.7109 37.7975 65.7109 38.4091C65.7109 39.0207 66.21 39.5165 66.8257 39.5165Z" fill="#7F54B3"/>
<defs>
<filter id="filter0_d_7350_121144" x="74.0562" y="20.8535" width="79.8875" height="85.7925" filterUnits="userSpaceOnUse" color-interpolation-filters="sRGB">
<feFlood flood-opacity="0" result="BackgroundImageFix"/>
<feColorMatrix in="SourceAlpha" type="matrix" values="0 0 0 0 0 0 0 0 0 0 0 0 0 0 0 0 0 0 127 0" result="hardAlpha"/>
<feOffset dy="11"/>
<feGaussianBlur stdDeviation="11"/>
<feColorMatrix type="matrix" values="0 0 0 0 0.397708 0 0 0 0 0.47749 0 0 0 0 0.575 0 0 0 0.15 0"/>
<feBlend mode="normal" in2="BackgroundImageFix" result="effect1_dropShadow_7350_121144"/>
<feBlend mode="normal" in="SourceGraphic" in2="effect1_dropShadow_7350_121144" result="shape"/>
</filter>
<filter id="filter1_d_7350_121144" x="0.0561523" y="20.8535" width="79.8875" height="85.7925" filterUnits="userSpaceOnUse" color-interpolation-filters="sRGB">
<feFlood flood-opacity="0" result="BackgroundImageFix"/>
<feColorMatrix in="SourceAlpha" type="matrix" values="0 0 0 0 0 0 0 0 0 0 0 0 0 0 0 0 0 0 127 0" result="hardAlpha"/>
<feOffset dy="11"/>
<feGaussianBlur stdDeviation="11"/>
<feColorMatrix type="matrix" values="0 0 0 0 0.397708 0 0 0 0 0.47749 0 0 0 0 0.575 0 0 0 0.15 0"/>
<feBlend mode="normal" in2="BackgroundImageFix" result="effect1_dropShadow_7350_121144"/>
<feBlend mode="normal" in="SourceGraphic" in2="effect1_dropShadow_7350_121144" result="shape"/>
</filter>
<filter id="filter2_d_7350_121144" x="30.1914" y="7.51383" width="93.6169" height="101.66" filterUnits="userSpaceOnUse" color-interpolation-filters="sRGB">
<feFlood flood-opacity="0" result="BackgroundImageFix"/>
<feColorMatrix in="SourceAlpha" type="matrix" values="0 0 0 0 0 0 0 0 0 0 0 0 0 0 0 0 0 0 127 0" result="hardAlpha"/>
<feOffset dy="7.76626"/>
<feGaussianBlur stdDeviation="11.2036"/>
<feColorMatrix type="matrix" values="0 0 0 0 0.397708 0 0 0 0 0.47749 0 0 0 0 0.575 0 0 0 0.16 0"/>
<feBlend mode="normal" in2="BackgroundImageFix" result="effect1_dropShadow_7350_121144"/>
<feBlend mode="normal" in="SourceGraphic" in2="effect1_dropShadow_7350_121144" result="shape"/>
</filter>
</defs>
</svg>
