<svg width="146" height="115" viewBox="0 0 146 115" fill="none" xmlns="http://www.w3.org/2000/svg">
<g filter="url(#filter0_d_7350_121204)">
<rect x="22.5994" y="19.8613" width="101.377" height="70" rx="5" fill="white"/>
</g>
<path d="M118.524 24.8613V84.8613" stroke="#F6F7F7" stroke-width="1.5" stroke-linecap="round" stroke-linejoin="round"/>
<path d="M28.052 24.8613V84.8613" stroke="#F6F7F7" stroke-width="1.5" stroke-linecap="round" stroke-linejoin="round"/>
<path d="M46.1465 24.8613V84.8613" stroke="#F6F7F7" stroke-width="1.5" stroke-linecap="round" stroke-linejoin="round"/>
<path d="M64.2407 24.8613V84.8613" stroke="#F6F7F7" stroke-width="1.5" stroke-linecap="round" stroke-linejoin="round"/>
<path d="M82.335 24.8613V84.8613" stroke="#F6F7F7" stroke-width="1.5" stroke-linecap="round" stroke-linejoin="round"/>
<path d="M100.429 24.8613V84.8613" stroke="#F6F7F7" stroke-width="1.5" stroke-linecap="round" stroke-linejoin="round"/>
<g clip-path="url(#clip0_7350_121204)">
<path d="M70.4135 31.0645C71.1698 30.0704 71.7369 28.936 72.2614 27.8077C72.3834 27.5394 72.542 27.2893 72.664 27.021C72.7859 26.7527 72.9018 26.4782 73.0177 26.2099C73.2982 25.5512 73.5666 24.8864 73.8044 24.2094L73.6642 24.5937C74.085 23.4898 74.4448 22.3615 74.7803 21.2332C75.0791 20.2208 75.3291 19.184 75.4816 18.135C75.8049 15.9029 76.0244 13.6341 76.0061 11.3714C75.9939 10.0602 75.9817 8.70626 75.7744 7.40721C75.7987 7.55358 75.8231 7.69995 75.8475 7.84632C75.7134 6.9681 75.567 6.08987 75.3962 5.22383C75.3047 4.76032 74.8839 4.40049 74.4631 4.24193C74.024 4.08336 73.5544 4.10775 73.1458 4.3578C72.6457 4.66884 72.1212 4.9128 71.5845 5.15065C68.2179 6.63876 64.6867 7.74874 61.0701 8.45011C60.1187 8.63307 59.1612 8.81604 58.2037 8.97461C57.2401 9.12708 56.2642 9.22466 55.3067 9.41372C54.8615 9.4991 54.4163 9.56619 53.9711 9.65767C53.7454 9.70646 53.5259 9.75525 53.3002 9.80404C53.0319 9.85893 52.8306 9.99921 52.605 10.1517C52.2512 10.3895 52.2939 10.853 52.6355 11.0726C52.8062 11.1824 52.9831 11.3166 53.1782 11.3653C53.3429 11.408 53.5198 11.4202 53.6905 11.4507C54.0992 11.5178 54.5139 11.5544 54.9225 11.5849C55.2701 11.6093 55.6117 11.6337 55.9593 11.6581C56.3069 11.6764 56.6485 11.6581 56.99 11.6398C58.4781 11.5605 59.9662 11.4202 61.436 11.1702C64.1927 10.7006 66.9067 9.99311 69.5475 9.05999C70.4928 8.72455 71.4259 8.35863 72.3529 7.9683C72.3529 8.07198 72.3529 8.17566 72.3529 8.27324V8.28544C72.1639 8.53549 71.9809 8.79164 71.7918 9.03559C71.4625 9.48081 71.121 9.92602 70.7794 10.3651C70.0598 11.28 69.3462 12.2009 68.6021 13.0913C67.1262 14.86 65.504 16.5371 63.8512 18.1411C63.0278 18.9401 62.1801 19.7207 61.3141 20.477C60.8811 20.8551 60.4419 21.2271 60.0028 21.5992C59.7894 21.776 59.5759 21.959 59.3563 22.1358L59.3441 22.148C59.3076 22.1785 59.271 22.209 59.2344 22.2334C59.1063 22.3371 58.9782 22.4408 58.8501 22.5384C57.051 23.9716 55.1787 25.3011 53.2575 26.5636C51.3242 27.8382 49.336 29.0336 47.2929 30.1253C46.2805 30.6681 45.2498 31.1865 44.2069 31.6744C43.9568 31.7964 43.7007 31.9122 43.4445 32.0281C43.3226 32.083 43.2067 32.1379 43.0847 32.1928C43.0237 32.2172 42.9627 32.2477 42.9078 32.2721L42.8652 32.2904C42.7615 32.2904 42.6029 32.4063 42.5053 32.4489C42.3711 32.5099 42.237 32.5648 42.0967 32.6258C41.8101 32.7478 41.5234 32.8698 41.2307 32.9917C36.9859 34.7482 32.5643 36.1143 28.0694 37.0475C26.9472 37.2792 25.8007 37.4195 24.6968 37.7C24.9712 37.6268 24.5321 37.7305 24.4711 37.7366C24.3248 37.761 24.1784 37.7793 24.032 37.8037C23.7393 37.8464 23.4465 37.8891 23.1538 37.9257C22.8245 37.9684 22.5012 38.0233 22.178 38.0782C22.1109 38.0903 22.0438 38.1025 21.9706 38.1147C21.9645 38.1147 21.9523 38.1147 21.934 38.1147C21.7694 38.1208 21.6047 38.1513 21.4461 38.1696C19.153 38.4319 16.872 38.6209 14.5667 38.6453C13.9934 38.6514 13.4201 38.6575 12.8468 38.688C12.426 38.7063 12.0661 39.0357 12.0296 39.4626C11.9991 39.8529 12.2552 40.3286 12.6821 40.3774C15.0302 40.664 17.4392 40.5726 19.7994 40.5238C20.9704 40.4994 22.1658 40.4201 23.3307 40.292C24.5626 40.1578 25.7946 40.0298 27.0143 39.8285C31.6372 39.0662 36.1687 37.8281 40.5354 36.1326C44.9631 34.4128 49.2323 32.2843 53.2514 29.7472C57.2523 27.2223 60.9969 24.2277 64.3818 20.9222C67.2848 18.0862 69.9439 14.9941 72.2553 11.6581C72.2309 12.0423 72.2126 12.4265 72.1883 12.8108C72.1517 13.4023 72.109 13.9939 72.0541 14.5855C71.8955 16.1346 71.6699 17.6776 71.432 19.2145C71.3039 20.0379 71.2124 20.8612 71.0722 21.6784C70.938 22.4774 70.7794 23.2702 70.6148 24.0631C70.5233 24.5144 70.4257 24.9657 70.3159 25.4109C70.1878 25.9476 70.0476 26.466 70.011 27.021C70.0232 26.9173 70.0293 26.8075 70.0415 26.7039C69.8524 27.3015 69.6999 27.9175 69.5353 28.5274C69.3767 29.1312 69.1815 29.7289 69.0657 30.3449C69.0047 30.6742 69.1449 31.0645 69.4682 31.217C69.7609 31.3573 70.1939 31.339 70.4074 31.0584L70.4135 31.0645Z" fill="#DCDCDE"/>
</g>
<path d="M113.851 59.6993C111.953 59.3219 108.546 63.9462 106.733 63.1794C98.8354 59.8088 97.7526 29.5097 89.3441 29.7164C80.9356 29.9231 81.5077 62.4736 73.2452 63.5081C69.8015 63.934 67.7084 51.0354 64.2529 51.3397C58.5945 51.7655 57.5115 72.768 51.8655 73.4619C48.1056 73.9244 44.9174 60.5025 41.1697 61.0259C34.8785 61.8775 28.052 86.1778 28.052 86.1778H118.524V64.4936C118.524 64.4936 115.385 59.9913 113.851 59.6993Z" fill="#E5CFE8"/>
<path d="M113.851 69.4339C111.953 69.1903 108.546 72.1231 106.733 71.6364C98.8354 69.4948 97.7526 50.354 89.3441 50.4634C80.9359 50.5727 81.5077 71.1497 73.2452 71.8433C69.8015 72.1109 67.7084 63.9582 64.2529 64.1164C58.5945 64.3962 57.5115 77.6719 51.8655 78.11C48.1056 78.402 44.9174 69.9206 41.1697 70.2493C34.8785 70.8089 28.052 86.1778 28.052 86.1778H118.524V72.464C118.524 72.464 115.385 69.6653 113.851 69.4339Z" fill="#7F54B3"/>
<g clip-path="url(#clip1_7350_121204)">
<rect x="33.916" y="47.4922" width="15" height="9.24755" fill="#E5CFE8"/>
</g>
<rect x="41.416" y="54.7397" width="2.20348" height="2.20348" transform="rotate(45 41.416 54.7397)" fill="#E5CFE8"/>
<defs>
<filter id="filter0_d_7350_121204" x="0.599365" y="0.861328" width="145.377" height="114" filterUnits="userSpaceOnUse" color-interpolation-filters="sRGB">
<feFlood flood-opacity="0" result="BackgroundImageFix"/>
<feColorMatrix in="SourceAlpha" type="matrix" values="0 0 0 0 0 0 0 0 0 0 0 0 0 0 0 0 0 0 127 0" result="hardAlpha"/>
<feOffset dy="3"/>
<feGaussianBlur stdDeviation="11"/>
<feColorMatrix type="matrix" values="0 0 0 0 0.397708 0 0 0 0 0.47749 0 0 0 0 0.575 0 0 0 0.18 0"/>
<feBlend mode="normal" in2="BackgroundImageFix" result="effect1_dropShadow_7350_121204"/>
<feBlend mode="normal" in="SourceGraphic" in2="effect1_dropShadow_7350_121204" result="shape"/>
</filter>
<clipPath id="clip0_7350_121204">
<rect width="63.9766" height="36.4465" fill="white" transform="translate(12.0234 4.13818)"/>
</clipPath>
<clipPath id="clip1_7350_121204">
<rect x="33.916" y="48.7397" width="15" height="8" rx="1" fill="white"/>
</clipPath>
</defs>
</svg>
