<svg width="184" height="52" viewBox="0 0 184 52" fill="none" xmlns="http://www.w3.org/2000/svg">
<g clip-path="url(#clip0_7350_121121)">
<path d="M8.31753 1.4707H76.8454C81.1824 1.4707 84.693 4.98132 84.693 9.31836V35.4764C84.693 39.8135 81.1824 43.3241 76.8454 43.3241H52.2704L55.6436 51.5845L40.8089 43.3241H8.35173C4.01502 43.3241 0.504403 39.8135 0.504403 35.4764V9.31836C0.469872 5.01585 3.98016 1.4707 8.31753 1.4707Z" fill="#7F54B3"/>
<path d="M5.29822 8.62382C5.77738 7.97333 6.49594 7.63131 7.45425 7.56291C9.19985 7.42577 10.1924 8.24694 10.4318 10.0267C11.4927 17.1795 12.6562 23.2372 13.8881 28.1994L21.3829 13.9284C22.0676 12.6277 22.9233 11.9434 23.95 11.875C25.4559 11.7724 26.3797 12.7303 26.7562 14.7495C27.6119 19.301 28.707 23.1684 30.0073 26.4538C30.8972 17.7613 32.4031 11.4984 34.5249 7.63131C35.038 6.673 35.791 6.19385 36.7836 6.12512C37.5709 6.05704 38.2894 6.29646 38.9396 6.80981C39.5897 7.32317 39.9321 7.97333 40.0005 8.76063C40.0347 9.37659 39.9321 9.88994 39.6585 10.4033C38.3236 12.8675 37.2282 17.0085 36.3386 22.7577C35.4832 28.3362 35.1751 32.6828 35.3803 35.7971C35.449 36.6521 35.3119 37.4052 34.9699 38.0557C34.5588 38.8085 33.9432 39.2192 33.1559 39.2877C32.266 39.3561 31.3422 38.9456 30.4523 38.0215C27.2696 34.7701 24.737 29.9105 22.8891 23.4424C20.6643 27.8228 19.0217 31.1082 17.9608 33.2984C15.9415 37.1658 14.2305 39.1508 12.793 39.2535C11.8689 39.3219 11.0819 38.5346 10.3976 36.8922C8.6523 32.4088 6.76988 23.7502 4.751 10.9167C4.61386 10.0267 4.81907 9.23945 5.29822 8.62382ZM78.8438 13.9968C77.6119 11.8408 75.7979 10.5404 73.3682 10.0267C72.7177 9.88994 72.1021 9.82154 71.52 9.82154C68.2347 9.82154 65.5653 11.5326 63.4777 14.9551C61.6979 17.8639 60.8083 21.0808 60.8083 24.6059C60.8083 27.2411 61.3559 29.4997 62.451 31.3821C63.6829 33.5381 65.4969 34.8385 67.9265 35.3518C68.5767 35.489 69.1927 35.5574 69.7747 35.5574C73.0943 35.5574 75.7637 33.8463 77.8171 30.4238C79.5966 27.4805 80.4865 24.2636 80.4865 20.7388C80.5207 18.0694 79.9389 15.8447 78.8438 13.9968ZM74.5318 23.4766C74.0526 25.7352 73.1969 27.4121 71.9304 28.5414C70.9383 29.4313 70.0142 29.8075 69.1588 29.6365C68.3373 29.4655 67.6526 28.7469 67.1396 27.4121C66.7285 26.3512 66.5236 25.2903 66.5236 24.2978C66.5236 23.4424 66.592 22.5867 66.763 21.7997C67.0712 20.3965 67.6529 19.0274 68.5767 17.7271C69.7063 16.0499 70.9041 15.3658 72.136 15.6052C72.9575 15.7763 73.6422 16.4952 74.1552 17.8297C74.5659 18.8906 74.7712 19.9515 74.7712 20.944C74.7712 21.8339 74.7028 22.6893 74.5318 23.4763V23.4766ZM57.42 13.9968C56.1881 11.8408 54.3399 10.5404 51.9445 10.0267C51.2943 9.88994 50.6783 9.82154 50.0962 9.82154C46.8109 9.82154 44.1415 11.5326 42.0539 14.9551C40.2744 17.8639 39.3845 21.0808 39.3845 24.6059C39.3845 27.2411 39.9321 29.4997 41.0272 31.3821C42.2591 33.5381 44.0731 34.8385 46.5028 35.3518C47.1533 35.489 47.7689 35.5574 48.351 35.5574C51.6705 35.5574 54.3399 33.8463 56.3933 30.4238C58.1731 27.4805 59.0627 24.2636 59.0627 20.7388C59.0627 18.0694 58.5151 15.8447 57.42 13.9968ZM53.0738 23.4766C52.5946 25.7352 51.7389 27.4121 50.4728 28.5414C49.4803 29.4313 48.5562 29.8075 47.7005 29.6365C46.8793 29.4655 46.195 28.7469 45.6813 27.4121C45.2708 26.3512 45.0656 25.2903 45.0656 24.2978C45.0656 23.4424 45.134 22.5867 45.305 21.7997C45.6132 20.3965 46.195 19.0274 47.1191 17.7271C48.2484 16.0499 49.4461 15.3658 50.678 15.6052C51.4995 15.7763 52.1842 16.4952 52.6972 17.8297C53.1083 18.8906 53.3132 19.9515 53.3132 20.944C53.3477 21.8339 53.2448 22.6893 53.0738 23.4763V23.4766Z" fill="white"/>
</g>
<g clip-path="url(#clip1_7350_121121)">
<path d="M149.231 26.8187L147.698 32.5398L142.097 32.6583C140.423 29.5535 139.473 26.0012 139.473 22.2262C139.473 18.5759 140.361 15.1336 141.935 12.1025H141.936L146.923 13.0168L149.107 17.9735C148.65 19.3065 148.401 20.7373 148.401 22.2262C148.401 23.8421 148.694 25.3904 149.231 26.8187Z" fill="#FBBB00"/>
<path d="M183.115 18.1138C183.368 19.4454 183.5 20.8206 183.5 22.2261C183.5 23.8021 183.334 25.3395 183.019 26.8223C181.947 31.8685 179.147 36.2747 175.268 39.3929L175.267 39.3917L168.986 39.0712L168.097 33.5219C170.671 32.0124 172.682 29.6502 173.742 26.8223H161.971V18.1138H173.914H183.115Z" fill="#518EF8"/>
<path d="M175.267 39.3918L175.268 39.393C171.495 42.4252 166.703 44.2395 161.486 44.2395C153.103 44.2395 145.815 39.5539 142.097 32.6584L149.23 26.8188C151.089 31.7803 155.876 35.3121 161.486 35.3121C163.898 35.3121 166.158 34.6601 168.096 33.522L175.267 39.3918Z" fill="#28B446"/>
<path d="M175.538 5.28076L168.406 11.1191C166.4 9.86485 164.028 9.1403 161.487 9.1403C155.749 9.1403 150.873 12.8341 149.107 17.9735L141.936 12.1025H141.935C145.598 5.03887 152.979 0.212891 161.487 0.212891C166.828 0.212891 171.725 2.11549 175.538 5.28076Z" fill="#F14336"/>
</g>
<g clip-path="url(#clip2_7350_121121)">
<path d="M130.614 15.7211C130.351 15.6972 130.092 15.6613 129.828 15.6534C129.577 15.6454 129.326 15.6374 129.071 15.6294C128.549 15.6135 128.022 15.5896 127.5 15.5736C126.99 15.5577 126.467 15.6055 125.957 15.6215C125.443 15.6374 124.928 15.6494 124.414 15.6613C122.345 15.7052 120.276 15.773 118.202 15.777C116.129 15.7849 114.056 15.7929 111.987 15.753C109.913 15.7132 107.844 15.6853 105.771 15.5975C104.73 15.5537 103.69 15.5497 102.653 15.5138C102.242 15.5019 101.832 15.47 101.421 15.47C102.015 15.2905 102.605 15.1032 103.191 14.9078C103.993 14.6407 104.802 14.3815 105.583 14.0586C105.52 14.0865 105.456 14.1104 105.388 14.1383C105.791 13.9788 106.189 13.8114 106.584 13.628C106.752 13.5482 106.919 13.4725 107.087 13.3927C107.126 13.3728 107.166 13.3568 107.206 13.3369C107.262 13.313 107.258 13.313 107.202 13.3369C107.246 13.321 107.286 13.301 107.33 13.2851C107.406 13.2412 107.465 13.1854 107.509 13.1136C107.537 13.0817 107.593 13.0379 107.605 13.0259C107.812 12.8146 107.728 12.4279 107.429 12.3561C107.31 12.3282 107.174 12.2764 107.055 12.2764L106.967 12.2883L106.903 12.2963C106.851 12.3003 106.799 12.3083 106.752 12.3123C106.524 12.3362 106.301 12.3641 106.078 12.392C104.523 12.5874 102.988 12.9542 101.477 13.3529C99.9737 13.7516 98.4706 14.1503 96.9675 14.5609C96.1183 14.7922 95.2691 15.0434 94.3999 15.1789L94.1248 15.2945C94.045 15.3543 93.9653 15.4141 93.8856 15.4779C93.6982 15.6653 93.5905 15.9045 93.5586 16.1637C93.5307 16.375 93.5586 16.5624 93.6384 16.7578C93.7341 16.985 93.8935 17.2043 94.1168 17.3239C95.0976 17.8382 96.1342 18.2369 97.1629 18.6436C98.1038 19.0184 99.0447 19.3852 99.9976 19.7241C100.476 19.8916 100.955 20.063 101.441 20.2185C101.68 20.2942 101.915 20.37 102.155 20.4457C102.394 20.5215 102.637 20.5693 102.876 20.6451C103.359 20.7966 103.845 20.9481 104.328 21.0956C104.443 21.1315 104.559 21.1754 104.678 21.1953C104.806 21.2192 104.93 21.2392 105.053 21.279C105.292 21.3548 105.532 21.4305 105.767 21.5023C106.301 21.6698 106.843 21.8133 107.382 21.9568C107.661 22.0326 107.94 22.0924 108.215 22.1761C108.526 22.2718 108.845 22.2997 109.168 22.3396C109.395 22.3675 109.65 22.1442 109.698 21.9329C109.754 21.6857 109.654 21.4545 109.447 21.3149C109.228 21.1674 109.016 21.0159 108.777 20.9043C108.542 20.7966 108.323 20.673 108.095 20.5574C107.633 20.3261 107.174 20.0829 106.7 19.8716C106.465 19.768 106.233 19.6643 105.998 19.5566C105.882 19.5048 105.759 19.461 105.647 19.3972C105.528 19.3294 105.42 19.2536 105.296 19.1978C104.822 18.9865 104.347 18.7712 103.873 18.5599C103.61 18.4443 103.363 18.3007 103.104 18.1851C102.836 18.0655 102.569 17.9459 102.298 17.8303L102.314 17.8382C102.147 17.7665 101.979 17.6947 101.812 17.6229H101.86C102.9 17.7146 103.937 17.7944 104.977 17.8662C106.014 17.9339 107.059 17.9539 108.099 17.9738C109.14 17.9977 110.18 18.0097 111.221 18.0137C112.262 18.0137 113.302 17.9858 114.343 17.9579C115.384 17.9299 116.424 17.898 117.465 17.8343C119.546 17.7107 121.631 17.5751 123.704 17.3439C124.733 17.2282 125.762 17.1006 126.79 16.9651C127.085 16.9252 127.392 16.9013 127.683 16.8415C127.939 16.7897 128.19 16.7299 128.441 16.674C128.939 16.5664 129.434 16.4468 129.928 16.3312C130.179 16.2713 130.426 16.1836 130.674 16.1079C130.897 16.0401 130.841 15.7371 130.622 15.7172L130.614 15.7211ZM106.939 12.2923C106.911 12.2923 106.911 12.2923 106.939 12.2923V12.2923Z" fill="#DCDCDE"/>
<path d="M106.002 12.4038C106.026 12.4038 106.05 12.3998 106.074 12.3958C106.11 12.3918 106.145 12.3839 106.177 12.3799C106.118 12.3879 106.062 12.3958 106.002 12.4038Z" fill="#DCDCDE"/>
</g>
<g clip-path="url(#clip3_7350_121121)">
<path d="M93.7338 29.708C93.9969 29.684 94.2561 29.6482 94.5192 29.6402C94.7704 29.6322 95.0216 29.6242 95.2768 29.6163C95.7991 29.6003 96.3253 29.5764 96.8476 29.5604C97.358 29.5445 97.8803 29.5923 98.3906 29.6083C98.9049 29.6242 99.4193 29.6362 99.9336 29.6482C102.003 29.692 104.072 29.7598 106.145 29.7638C108.219 29.7717 110.292 29.7797 112.361 29.7399C114.434 29.7 116.504 29.6721 118.577 29.5844C119.617 29.5405 120.658 29.5365 121.695 29.5006C122.105 29.4887 122.516 29.4568 122.927 29.4568C122.333 29.2774 121.743 29.09 121.156 28.8946C120.355 28.6275 119.546 28.3683 118.764 28.0454C118.828 28.0733 118.892 28.0972 118.96 28.1251C118.557 27.9656 118.158 27.7982 117.763 27.6148C117.596 27.535 117.429 27.4593 117.261 27.3795C117.221 27.3596 117.181 27.3437 117.142 27.3237C117.086 27.2998 117.09 27.2998 117.145 27.3237C117.102 27.3078 117.062 27.2878 117.018 27.2719C116.942 27.228 116.882 27.1722 116.838 27.1005C116.811 27.0686 116.755 27.0247 116.743 27.0127C116.535 26.8014 116.619 26.4147 116.918 26.3429C117.038 26.315 117.173 26.2632 117.293 26.2632L117.381 26.2751L117.445 26.2831C117.496 26.2871 117.548 26.2951 117.596 26.2991C117.823 26.323 118.047 26.3509 118.27 26.3788C119.825 26.5742 121.36 26.941 122.871 27.3397C124.374 27.7384 125.877 28.1371 127.38 28.5477C128.229 28.779 129.079 29.0302 129.948 29.1657L130.223 29.2813C130.303 29.3412 130.382 29.401 130.462 29.4648C130.649 29.6521 130.757 29.8914 130.789 30.1505C130.817 30.3618 130.789 30.5492 130.709 30.7446C130.614 30.9718 130.454 31.1911 130.231 31.3107C129.25 31.8251 128.213 32.2238 127.185 32.6304C126.244 33.0052 125.303 33.372 124.35 33.7109C123.872 33.8784 123.393 34.0498 122.907 34.2053C122.667 34.2811 122.432 34.3568 122.193 34.4326C121.954 34.5083 121.711 34.5562 121.471 34.6319C120.989 34.7834 120.503 34.9349 120.02 35.0824C119.905 35.1183 119.789 35.1622 119.669 35.1821C119.542 35.206 119.418 35.226 119.294 35.2658C119.055 35.3416 118.816 35.4174 118.581 35.4891C118.047 35.6566 117.504 35.8001 116.966 35.9436C116.687 36.0194 116.408 36.0792 116.133 36.1629C115.822 36.2586 115.503 36.2865 115.18 36.3264C114.953 36.3543 114.697 36.131 114.65 35.9197C114.594 35.6725 114.693 35.4413 114.901 35.3017C115.12 35.1542 115.331 35.0027 115.571 34.8911C115.806 34.7834 116.025 34.6598 116.252 34.5442C116.715 34.313 117.173 34.0697 117.648 33.8584C117.883 33.7548 118.114 33.6511 118.35 33.5435C118.465 33.4916 118.589 33.4478 118.7 33.384C118.82 33.3162 118.928 33.2404 119.051 33.1846C119.526 32.9733 120 32.758 120.475 32.5467C120.738 32.4311 120.985 32.2876 121.244 32.1719C121.511 32.0523 121.778 31.9327 122.05 31.8171L122.034 31.8251C122.201 31.7533 122.368 31.6815 122.536 31.6098H122.488C121.447 31.7015 120.411 31.7812 119.37 31.853C118.334 31.9207 117.289 31.9407 116.248 31.9606C115.208 31.9845 114.167 31.9965 113.127 32.0005C112.086 32.0005 111.045 31.9726 110.005 31.9447C108.964 31.9168 107.924 31.8849 106.883 31.8211C104.802 31.6975 102.717 31.5619 100.643 31.3307C99.6146 31.215 98.586 31.0875 97.5573 30.9519C97.2623 30.912 96.9553 30.8881 96.6642 30.8283C96.4091 30.7765 96.1579 30.7167 95.9067 30.6609C95.4083 30.5532 94.9139 30.4336 94.4196 30.318C94.1684 30.2582 93.9212 30.1705 93.674 30.0947C93.4507 30.0269 93.5065 29.7239 93.7258 29.704L93.7338 29.708ZM117.409 26.2791C117.437 26.2791 117.437 26.2791 117.409 26.2791V26.2791Z" fill="#DCDCDE"/>
<path d="M118.346 26.3906C118.322 26.3906 118.298 26.3866 118.274 26.3826C118.238 26.3787 118.202 26.3707 118.17 26.3667C118.23 26.3747 118.286 26.3826 118.346 26.3906Z" fill="#DCDCDE"/>
</g>
<defs>
<clipPath id="clip0_7350_121121">
<rect width="84.1968" height="50.316" fill="white" transform="translate(0.5 1.4707)"/>
</clipPath>
<clipPath id="clip1_7350_121121">
<rect width="44.0265" height="44.0265" fill="white" transform="translate(139.473 0.212891)"/>
</clipPath>
<clipPath id="clip2_7350_121121">
<rect width="37.2705" height="10.0632" fill="white" transform="translate(93.5386 12.2764)"/>
</clipPath>
<clipPath id="clip3_7350_121121">
<rect width="37.2705" height="10.0632" fill="white" transform="matrix(-1 0 0 1 130.809 26.2632)"/>
</clipPath>
</defs>
</svg>
