<svg width="100" height="100" viewBox="0 0 100 100" fill="none" xmlns="http://www.w3.org/2000/svg">
<circle cx="50" cy="50" r="50" fill="#F6F7F7"/>
<g clip-path="url(#clip0)">
<path d="M68.1205 17.0416C62.4463 7.49115 51.2151 7.0464 51.2151 7.0464C51.2151 7.0464 40.2887 5.64192 33.2781 20.2251C26.7363 33.8017 17.7092 46.9336 31.8243 50.1171L34.3801 42.2052L35.951 50.7257C37.9675 50.8662 39.9839 50.913 42.0004 50.8194C57.1238 50.3278 71.4969 50.9598 71.0514 45.5526C70.4183 38.3195 73.5837 26.2644 68.1205 17.0416Z" fill="#23282D"/>
<path d="M43.2196 39.2331C43.0086 40.3099 42.7976 41.4335 42.1411 42.323C41.3908 43.3529 40.1715 43.9381 39.3743 44.8979C38.1551 46.3726 38.0847 48.4325 38.0847 50.3519C38.0847 52.1075 38.1082 53.9802 39.0929 55.4315C39.726 56.3678 40.6874 57.0466 41.6487 57.6786C45.3299 60.1599 49.2925 62.6645 53.724 62.7582C55.5528 62.7816 57.5224 62.3134 58.7416 60.9323C59.2575 60.2769 59.6795 59.5513 59.9609 58.7788C61.0864 55.9933 61.7898 53.0439 62.0008 50.0476C62.0946 48.6431 62.0946 47.1919 61.6022 45.8576C61.0629 44.3595 59.9843 43.1189 59.2575 41.7144C58.4134 40.029 58.0851 38.1096 58.3665 36.2369C58.4134 36.0965 58.3899 35.956 58.343 35.839C58.2258 35.6985 58.0382 35.6283 57.8741 35.6517L49.0814 35.0197C48.2608 34.9729 47.4401 34.8792 46.6429 34.7388C46.174 34.6452 44.9078 33.9663 44.4623 34.1536C43.6182 34.4345 43.3838 38.3202 43.2196 39.2331Z" fill="#915B63"/>
<path d="M51.6137 40.4031C58.7359 40.4031 64.5096 34.639 64.5096 27.5287C64.5096 20.4184 58.7359 14.6543 51.6137 14.6543C44.4915 14.6543 38.7178 20.4184 38.7178 27.5287C38.7178 34.639 44.4915 40.4031 51.6137 40.4031Z" fill="#B16C76"/>
<path d="M51.2967 32.2776C51.3592 32.9254 51.3292 33.6042 51.33 34.2212C51.2382 34.869 51.2081 35.5478 51.0545 36.1648C50.9929 36.2882 50.8696 36.3808 50.746 36.3191C50.6224 36.2574 50.5606 36.2266 50.5604 36.0723C50.4979 35.4245 50.5897 34.7766 50.6197 34.0979C50.7115 33.45 50.8033 32.8022 50.9569 32.1851C50.9877 32.1234 51.1111 32.0308 51.1729 32.0617C51.2039 32.1542 51.2657 32.1851 51.2967 32.2776Z" fill="#23282D"/>
<path d="M56.1244 34.1322C56.5652 34.1282 56.972 33.7601 56.9677 33.3197L56.9548 31.9985C56.9505 31.5581 56.5817 31.1513 56.1409 31.1552C55.7 31.1591 55.2932 31.5273 55.2975 31.9677L55.3104 33.2889C55.3147 33.7293 55.6835 34.1361 56.1244 34.1322ZM45.5198 34.1174C45.9606 34.1135 46.3675 33.7453 46.3632 33.3049L46.3502 31.9837C46.3459 31.5433 45.9771 31.1365 45.5363 31.1404C45.0955 31.1444 44.6886 31.5125 44.6929 31.9529L44.7058 33.2741C44.6805 33.7907 45.079 34.1213 45.5198 34.1174Z" fill="#23282D"/>
<path d="M78.5545 53.371C78.9765 54.635 79 55.9927 79 57.327C79 60.0423 78.9765 62.7576 79.0469 65.4964C79 66.9008 78.9296 68.3053 78.5076 69.6396C78.2262 70.5291 77.7807 71.3484 77.4993 72.2145C76.6318 74.8362 77.1007 77.6685 77.1711 80.4307C77.218 81.3202 77.1476 82.2097 76.9366 83.0758C76.4911 84.7846 75.2484 86.1656 74.4043 87.7106C73.5837 89.1853 73.0913 90.8238 72.1299 92.2049C72.1534 92.4156 72.0596 92.6965 72.0127 92.9071C71.9189 93.3285 71.8251 93.7498 71.7079 94.1712C71.4969 94.9904 71.4265 95.7863 70.8404 96.4651C70.559 96.7928 70.2073 97.0503 69.8556 97.3078L69.8556 97.3078C69.457 97.6121 69.0584 97.9398 68.6129 98.1739C68.0736 98.4548 67.4874 98.5719 66.9012 98.6655C66.6433 98.6889 66.3619 98.7357 66.104 98.7357L65.682 98.6655C65.5882 98.6655 65.3303 98.5016 65.2599 98.5251C61.227 99.3443 59.2106 98.7123 55.5763 98.0803C54.0287 98.1973 52.4578 98.2676 50.9103 98.291C49.0111 98.3144 47.1118 98.2676 45.2126 98.1505C45.025 98.1271 44.8375 98.1271 44.6499 98.0803C43.4072 98.5719 41.93 98.5485 40.5466 98.4782C38.4598 98.3846 36.3965 98.291 34.3331 97.9398C32.7153 97.659 31.0505 97.1674 29.972 95.9502C28.4948 94.2882 28.612 91.7601 29.2451 89.63C29.5968 88.4128 30.1127 87.2424 30.5113 86.0486C28.4714 86.2359 26.619 87.5467 25.7984 89.5598C24.5791 87.1488 23.313 84.5973 23.3833 81.882C23.4302 80.1498 24.0164 78.4878 24.1102 76.7556C24.1805 75.515 23.9695 74.2744 23.524 73.104C23.2192 72.2847 22.7737 71.4888 22.4923 70.6461C22.0703 69.3353 22.0937 67.9074 22.0937 66.5263C22.0468 65.6134 22.1406 64.6771 22.3282 63.7876C22.3986 63.4833 22.5158 63.179 22.633 62.8981C22.2813 61.0488 22.5627 59.0358 23.0316 57.1631C23.4537 55.4309 24.0164 53.7221 25.1419 52.3411C28.3072 48.4319 34.6145 48.5724 38.0847 44.9207C38.7178 44.2653 41.9066 42.3224 42.3521 41.5266C43.8996 38.7176 42.3286 41.4798 42.0707 45.0846C42.0707 45.0846 46.4999 46.4998 52.4999 46.4998C58.4999 46.4998 59.7967 44.9675 59.3278 43.1651C57.4051 35.7916 59.1871 40.52 60.4298 41.8075C61.0863 42.4863 63.3373 42.697 64.1814 43.1417C64.9551 43.5397 65.7992 43.7503 66.6433 43.9844C69.7149 44.8739 72.6458 46.2082 75.3188 47.9638C75.8815 48.2681 76.3739 48.7128 76.7725 49.2044C77.2348 49.8506 77.4009 50.6561 77.5628 51.4414L77.5697 51.475V51.5218C78.0386 52.2006 78.3903 52.8794 78.5545 53.371Z" fill="#D6B4E0"/>
<path d="M56.9184 49H43.2427C42.0847 49 41.1466 50.219 41.1466 51.7238V52.7143H41V54.9429H41.1466V56.5048H41V57.8381H41.1466V74.2762C41.1466 75.7809 42.0847 77 43.2427 77H56.9038C58.0617 77 58.9998 75.7809 58.9998 74.2762V51.7238C59.0145 50.219 58.0764 49 56.9184 49Z" fill="#23282D"/>
<path d="M65.5967 18.3744C65.5782 18.0216 65.3749 17.7047 65.0618 17.5408L54.7684 12.1529C54.5787 12.0536 54.3622 12.0178 54.1506 12.0508L39.8363 14.283C39.4313 14.3462 39.1058 14.6501 39.0151 15.0498L36.2883 27.068C36.1429 27.7092 36.6451 28.3139 37.3021 28.2885L43.2475 28.0588C43.6328 28.044 43.9753 27.8088 44.1276 27.4546L44.4372 26.7344C44.8052 25.8784 46.0823 26.1413 46.0823 27.0731C46.0823 27.5596 46.4866 27.9486 46.9728 27.9298L48.9751 27.8525C49.4155 27.8354 49.7927 27.5322 49.9041 27.1059L50.6211 24.3606C50.8958 23.3087 52.4149 23.3889 52.5774 24.4638L53.0321 27.471C53.1072 27.9675 53.5387 28.3313 54.0408 28.3213L65.0732 28.1018C65.6382 28.0906 66.0816 27.6139 66.052 27.0496L65.5967 18.3744Z" fill="#23282D"/>
<path d="M24.2568 90.6261C24.6942 91.504 25.2508 92.3727 26.0589 92.918C27.0858 93.6076 28.4499 93.6541 29.6084 93.2514C30.7726 92.8022 31.7636 92.0257 32.4771 91.0036C33.9192 89.0318 34.4777 86.5527 34.6292 84.119C34.7808 81.6852 34.5338 79.227 34.6127 76.808C34.6598 75.0454 34.7872 73.5115 35.0001 71.7453C35.0001 71.7453 35.7309 69.7738 36.0001 69.4998C37.0763 67.5304 38 67.1156 38.5 66.7315C39 66.3473 43.0001 64.2314 44.0001 63.4997C45.5001 62.4021 45.0001 62.4997 45.5001 60.4997C45.8751 58.9996 46.1537 55.8876 44.5001 55.4998C43.1434 55.1948 39.6159 58.1675 38.5001 58.9997C35.6919 61.1369 35.5001 62.4998 34.0001 64.9998C32.5001 67.4998 30.6645 69.4058 30.0001 70.9998C28.5967 74.4144 26.1883 76.9482 24.2478 79.9209C22.1051 83.1993 22.5807 87.2883 24.2568 90.6261Z" fill="#B16C76"/>
<path d="M77.1829 84.7098C76.8566 86.4804 75.8034 88.0481 74.2925 89.0558C73.3595 89.6984 72.2722 90.0119 71.1462 89.9756C70.0161 89.9163 68.984 89.3401 68.3409 88.4089C68.0655 87.935 67.8552 87.4257 67.7373 86.8999C67.0627 84.5951 66.5835 82.184 66.9451 79.8126C67.0925 78.9063 67.3595 78.0025 67.4064 77.0666C67.4788 76.0074 67.2932 74.9705 67.1076 73.9336L65.9569 67.5049C65.8975 67.04 65.7647 66.5644 65.5479 66.1514C65.0598 65.2875 64.0606 64.8956 63.158 64.5103C60.9462 63.5983 58.6973 62.4789 57.3065 60.5638C56.8679 59.9765 55.0124 58.2347 54.9999 57.4998C54.9767 56.1722 54.2924 53.5726 55.4999 52.9998C56.4999 52.9998 59.9999 54.9998 59.9999 54.4997C59.9999 53.9996 58.4999 53.9997 58.9999 51.4997C60.4999 51.4997 66.6369 57.1719 67.3299 58.6746C67.3695 58.7626 67.4091 58.8506 67.4487 58.9387C67.7381 59.6241 67.8931 60.3573 68.1405 61.0739C68.6477 62.5764 69.4656 63.952 70.1071 65.4066C71.6984 68.9741 72.1688 72.9326 73.7601 76.5001C75.0514 79.4555 77.8715 80.972 77.1829 84.7098Z" fill="#B16C76"/>
</g>
<defs>
<clipPath id="clip0">
<rect width="57" height="93" fill="white" transform="translate(22 7)"/>
</clipPath>
</defs>
</svg>
