<svg width="104" height="100" viewBox="0 0 104 100" fill="none" xmlns="http://www.w3.org/2000/svg">
<circle cx="53.1406" cy="50" r="50" fill="#F6F7F7"/>
<path d="M29.3333 75.4242C29.3333 74.6312 28.4438 74 27.3262 74H18.3403C17.2227 74 16.3333 74.6312 16.3333 75.4242V93H29.3333V75.4242Z" fill="#E5CFE8"/>
<path d="M49.3333 51.4098C49.3333 50.6248 48.4438 50 47.3262 50H38.3403C37.2227 50 36.3333 50.6248 36.3333 51.4098V93H49.3333V51.4098Z" fill="#7F54B3"/>
<path d="M69.3333 63.4403C69.3333 62.6383 68.4438 62 67.3262 62H58.3403C57.2227 62 56.3333 62.6383 56.3333 63.4403V93H69.3333V63.4403Z" fill="#C498D9"/>
<path d="M90.3333 27.4262C90.3333 26.6321 89.4438 26 88.3262 26H79.3403C78.2227 26 77.3333 26.6321 77.3333 27.4262V93H90.3333V27.4262Z" fill="#7F54B3"/>
<path d="M9.71118 61.1374L34.2417 33.7764L58.7723 47.5512L83.3028 5.2832" stroke="#E5CFE8" stroke-width="1.32088" stroke-miterlimit="10" stroke-linecap="round"/>
<path d="M9.61675 66.4215C12.5347 66.4215 14.9003 64.056 14.9003 61.138C14.9003 58.22 12.5347 55.8545 9.61675 55.8545C6.69876 55.8545 4.33325 58.22 4.33325 61.138C4.33325 64.056 6.69876 66.4215 9.61675 66.4215Z" fill="#7F54B3"/>
<path d="M34.1473 39.0602C37.0653 39.0602 39.4308 36.6947 39.4308 33.7767C39.4308 30.8587 37.0653 28.4932 34.1473 28.4932C31.2293 28.4932 28.8638 30.8587 28.8638 33.7767C28.8638 36.6947 31.2293 39.0602 34.1473 39.0602Z" fill="#7F54B3"/>
<path d="M58.6778 52.8346C61.5958 52.8346 63.9613 50.4691 63.9613 47.5511C63.9613 44.6331 61.5958 42.2676 58.6778 42.2676C55.7598 42.2676 53.3943 44.6331 53.3943 47.5511C53.3943 50.4691 55.7598 52.8346 58.6778 52.8346Z" fill="#7F54B3"/>
<path d="M83.2083 10.567C86.1263 10.567 88.4918 8.2015 88.4918 5.2835C88.4918 2.3655 86.1263 0 83.2083 0C80.2903 0 77.9248 2.3655 77.9248 5.2835C77.9248 8.2015 80.2903 10.567 83.2083 10.567Z" fill="#7F54B3"/>
</svg>
