<svg width="117" height="100" viewBox="0 0 117 100" fill="none" xmlns="http://www.w3.org/2000/svg">
<circle cx="57.5" cy="50" r="50" fill="#F6F7F7"/>
<path d="M49.4072 41.9682C50.2295 42.1762 50.9846 42.5155 51.6551 42.959C52.3258 43.4025 53.3475 43.1392 53.5427 42.3592L57.1748 27.8462C57.3087 27.3114 56.9844 26.7691 56.4498 26.6339L42.0787 23.0004C41.3043 22.8046 41.0409 21.7947 41.4795 21.1271C41.9293 20.4424 42.2737 19.6698 42.4846 18.8278C43.4861 14.8394 41.0875 10.7951 37.1381 9.79313C33.1887 8.79115 29.1764 11.2213 28.1748 15.2098C27.9642 16.0508 27.9043 16.8952 27.9783 17.7123C28.0506 18.5093 27.338 19.2758 26.5623 19.0796L13.7939 15.8504C12.3776 15.4919 10.9428 16.3612 10.5844 17.7916L0.208038 59.2507C-0.150372 60.681 0.707702 62.1272 2.12403 62.4857L43.1918 72.8676C44.6081 73.2262 46.0429 72.3569 46.4013 70.9265L49.6306 58.0265C49.8255 57.248 49.0515 56.5352 48.2522 56.608C47.4504 56.681 46.6228 56.6214 45.7988 56.4129C41.8494 55.411 39.4507 51.3667 40.4523 47.3782C41.4464 43.3889 45.4578 40.9662 49.4072 41.9682Z" fill="#7F54B3"/>
<path d="M109.02 37.6466L95.7596 38.8676C94.9634 38.9409 94.3797 38.0751 94.5756 37.2999C94.7768 36.5032 94.8494 35.6583 94.7706 34.7893C94.3891 30.6951 90.7669 27.6739 86.6656 28.0551C82.5646 28.4289 79.551 32.0594 79.9324 36.1536C80.0113 37.0181 80.2366 37.8342 80.5801 38.5806C80.9146 39.3072 80.4987 40.2656 79.7022 40.3387L64.7831 41.7078C64.2332 41.7583 63.8283 42.2451 63.8787 42.795L65.2478 57.7184C65.3208 58.5145 64.4551 59.0978 63.68 58.902C62.8832 58.7007 62.0384 58.6281 61.1694 58.7069C57.0755 59.0959 54.0545 62.7186 54.4357 66.8204C54.8094 70.9219 58.4394 73.9359 62.5331 73.5543C63.3976 73.4754 64.2137 73.2501 64.9601 72.9064C65.6866 72.5719 66.6449 72.9875 66.7182 73.784L67.9389 87.0453C68.0728 88.5134 69.3736 89.5889 70.8414 89.4549L113.426 85.5417C114.894 85.4077 115.97 84.1068 115.836 82.6387L111.923 40.0487C111.782 38.5879 110.488 37.5127 109.02 37.6466Z" fill="#C498D9"/>
</svg>
