<svg width="145" height="31" viewBox="0 0 145 31" fill="none" xmlns="http://www.w3.org/2000/svg">
<path fill-rule="evenodd" clip-rule="evenodd" d="M63.6779 7.41161C64.7192 6.1451 66.161 5.50146 68.0033 5.50146C69.9658 5.50146 71.4676 6.1451 72.529 7.41161C73.5703 8.69888 74.0909 10.526 74.0909 12.8929C74.0909 15.2598 73.5703 17.1077 72.549 18.4157C71.5277 19.7237 70.0659 20.3881 68.1635 20.3881C66.201 20.3881 64.6991 19.7237 63.6779 18.4157C62.6566 17.1077 62.1359 15.2183 62.1359 12.7476C62.1359 10.4637 62.6366 8.67812 63.6779 7.41161ZM52.1033 12.7889C52.1033 10.6711 52.7641 8.92706 54.1058 7.55674C55.4475 6.18642 57.1296 5.50126 59.1721 5.52203C59.9531 5.52203 60.6941 5.60507 61.3549 5.79194V9.15545C60.634 8.94783 59.9732 8.84402 59.3524 8.84402C58.3912 8.84402 57.6102 9.21774 56.9694 9.98595C56.3486 10.7334 56.0282 11.7092 56.0282 12.8927C56.0282 14.1592 56.3486 15.1558 56.9894 15.9032C57.6302 16.6299 58.4713 17.0037 59.5326 17.0037C60.0533 17.0037 60.654 16.8998 61.3549 16.6922V20.0557C60.5939 20.2841 59.8931 20.3879 59.2723 20.3879C57.1296 20.3879 55.4074 19.682 54.0858 18.2909C52.7641 16.8998 52.1033 15.052 52.1033 12.7889ZM69.5852 16.2979C69.2247 16.8793 68.6841 17.1699 68.0032 17.1699C67.3624 17.1699 66.8818 16.8793 66.5414 16.2979C66.2009 15.7166 66.0407 14.5539 66.0407 12.7891C66.0407 10.0692 66.7016 8.71963 68.0433 8.71963C69.445 8.71963 70.1659 10.09 70.1659 12.8514C70.1459 14.5539 69.9456 15.7166 69.5852 16.2979ZM83.2623 9.07267L83.9832 5.89602H88.7492L90.5915 20.0352H86.947L85.9657 10.3184L83.6829 20.0352H81.1997L78.8167 10.2977L77.8756 20.0352H74.3912L76.1334 5.89602H80.7792C81.44 8.9481 81.9607 11.5642 82.3412 13.765L82.7417 11.5642C82.9019 10.7129 83.0821 9.88241 83.2623 9.07267ZM100.664 5.89602L99.9434 9.07267C99.7632 9.88241 99.5829 10.7129 99.4227 11.5642L99.0222 13.765C98.6418 11.5642 98.1211 8.9481 97.4603 5.89602H92.8144L91.0722 20.0352H94.5566L95.4978 10.2977L97.8808 20.0352H100.364L102.627 10.3184L103.608 20.0352H107.253L105.41 5.89602H100.664ZM115.263 14.4501H111.999V17.0454H115.783V20.0559H108.314V5.91672H115.763V8.92727H111.999V11.5226H115.263V14.4501ZM126.156 12.2078C126.537 11.5642 126.737 10.8998 126.737 10.2146C126.737 8.88581 126.236 7.82693 125.235 7.05872C124.234 6.29051 122.852 5.89602 121.13 5.89602H116.845V20.0352H120.529V13.5989H120.589L123.573 20.0352H127.458L124.514 13.6612C125.215 13.329 125.776 12.8514 126.156 12.2078ZM120.509 8.61584V11.9794C122.131 11.9586 122.952 11.4603 122.952 10.4845C122.952 9.82006 122.772 9.36329 122.392 9.07262C122.011 8.78194 121.39 8.6366 120.509 8.61584ZM128.9 7.55688C127.558 8.9272 126.897 10.6712 126.897 12.789C126.897 15.0521 127.558 16.9 128.88 18.2911C130.201 19.6821 131.924 20.3881 134.066 20.3881C134.687 20.3881 135.388 20.2843 136.149 20.0559V16.6924C135.448 16.9 134.847 17.0038 134.327 17.0038C133.265 17.0038 132.424 16.6301 131.783 15.9034C131.143 15.1559 130.822 14.1593 130.822 12.8928C130.822 11.7094 131.143 10.7335 131.763 9.98609C132.404 9.21788 133.185 8.84415 134.146 8.84415C134.767 8.84415 135.428 8.94796 136.149 9.15559V5.79207C135.488 5.60521 134.747 5.52216 133.966 5.52216C131.944 5.5014 130.241 6.18656 128.9 7.55688ZM140.855 14.4294V17.0039V17.0247H144.66V20.0352H137.19V5.89602H144.64V8.90657H140.855V11.5019H144.119V14.4294H140.855Z" fill="#101517"/>
<path fill-rule="evenodd" clip-rule="evenodd" d="M45.1923 0H4.62531C2.05804 0 -0.0202266 2.15201 0.000148548 4.76366V20.6425C0.000148548 23.2751 2.07842 25.4062 4.64569 25.4062H23.8595L32.6412 30.4206L30.6444 25.4062H45.1923C47.7596 25.4062 49.8378 23.2751 49.8378 20.6425V4.76366C49.8378 2.13111 47.7596 0 45.1923 0ZM3.76961 3.67721C3.1991 3.71899 2.77122 3.92793 2.48597 4.3249C2.20072 4.70098 2.09884 5.18152 2.15997 5.72475C3.3621 13.5597 4.48274 18.8457 5.52187 21.5827C5.92938 22.5856 6.398 23.0662 6.94813 23.0244C7.80389 22.9617 8.82265 21.7499 10.0248 19.3889C10.6564 18.0518 11.6344 16.046 12.9588 13.3717C14.0591 17.3205 15.5668 20.2873 17.4617 22.2722C17.9915 22.8363 18.5416 23.087 19.0714 23.0453C19.54 23.0035 19.9067 22.7528 20.1512 22.2931C20.355 21.8961 20.4365 21.4365 20.3958 20.9141C20.2735 19.0129 20.4569 16.3594 20.9663 12.9538C21.496 9.44375 22.148 6.91566 22.9426 5.41135C23.1056 5.09795 23.1668 4.78455 23.1464 4.40847C23.1056 3.92793 22.9019 3.53095 22.5148 3.21755C22.1276 2.90416 21.6998 2.7579 21.2311 2.79969C20.6403 2.84148 20.192 3.13398 19.8864 3.71899C18.6231 6.07993 17.7266 9.9034 17.1968 15.2103C16.4226 13.2045 15.7706 10.8436 15.2612 8.06479C15.0371 6.83209 14.4869 6.24708 13.5904 6.30976C12.9792 6.35154 12.4698 6.76941 12.0623 7.56335L7.60014 16.2758C6.86663 13.2463 6.17388 9.54821 5.54225 5.18152C5.39962 4.09507 4.80874 3.59363 3.76961 3.67721ZM33.5173 7.60511C32.7838 6.28884 31.6835 5.49489 30.2572 5.1815C29.8701 5.09792 29.5033 5.05614 29.157 5.05614C27.201 5.05614 25.6117 6.1008 24.3688 8.19013C23.3093 9.96605 22.7795 11.93 22.7795 14.082C22.7795 15.6908 23.1055 17.0698 23.7575 18.2189C24.4911 19.5352 25.5709 20.3291 27.0176 20.6425C27.4047 20.7261 27.7715 20.7679 28.1178 20.7679C30.0942 20.7679 31.6835 19.7232 32.906 17.6339C33.9655 15.8371 34.4953 13.8731 34.4953 11.7211C34.4953 10.0914 34.1693 8.73335 33.5173 7.60511ZM43.0325 5.1815C44.4791 5.49489 45.559 6.28884 46.2925 7.60511C46.9445 8.73335 47.2705 10.0914 47.2705 11.7211C47.2705 13.8731 46.7408 15.8371 45.6813 17.6339C44.4588 19.7232 42.8695 20.7679 40.8931 20.7679C40.5467 20.7679 40.18 20.7261 39.7928 20.6425C38.3462 20.3291 37.2663 19.5352 36.5328 18.2189C35.8808 17.0698 35.5548 15.6908 35.5548 14.082C35.5548 11.93 36.0846 9.96605 37.1441 8.19013C38.3869 6.1008 39.9762 5.05614 41.9322 5.05614C42.2786 5.05614 42.6454 5.09792 43.0325 5.1815ZM30.9501 13.3926C30.6648 14.7716 30.1555 15.7954 29.4016 16.4848C28.8107 17.0281 28.2606 17.2579 27.7512 17.1534C27.2622 17.049 26.8547 16.6102 26.5491 15.7954C26.3046 15.1477 26.1823 14.5 26.1823 13.8941C26.1823 13.3718 26.223 12.8494 26.3249 12.3689C26.5083 11.5123 26.8547 10.6765 27.4048 9.88258C28.0772 8.85881 28.7903 8.44094 29.5238 8.5872C30.0128 8.69166 30.4203 9.13042 30.726 9.94526C30.9705 10.5929 31.0927 11.2406 31.0927 11.8465C31.0927 12.3898 31.052 12.9121 30.9501 13.3926ZM42.1768 16.4848C42.9307 15.7954 43.4401 14.7716 43.7253 13.3926C43.8069 12.9121 43.868 12.3898 43.868 11.8465C43.868 11.2406 43.7457 10.5929 43.5012 9.94526C43.1956 9.13042 42.7881 8.69166 42.2991 8.5872C41.5656 8.44094 40.8524 8.85881 40.1801 9.88258C39.6299 10.6765 39.2836 11.5123 39.1002 12.3689C38.9983 12.8494 38.9576 13.3718 38.9576 13.8941C38.9576 14.5 39.0798 15.1477 39.3243 15.7954C39.6299 16.6102 40.0374 17.049 40.5264 17.1534C41.0358 17.2579 41.586 17.0281 42.1768 16.4848Z" fill="#9A69C7"/>
</svg>
