<svg width="71" height="24" viewBox="0 0 71 24" fill="none" xmlns="http://www.w3.org/2000/svg">
<g clip-path="url(#clip0_7350_120918)">
<path d="M30.2391 12.3076C30.2391 15.6389 27.633 18.0937 24.4347 18.0937C21.2365 18.0937 18.6304 15.6389 18.6304 12.3076C18.6304 8.95279 21.2365 6.52148 24.4347 6.52148C27.633 6.52148 30.2391 8.95279 30.2391 12.3076ZM27.6982 12.3076C27.6982 10.2258 26.1878 8.80149 24.4347 8.80149C22.6817 8.80149 21.1712 10.2258 21.1712 12.3076C21.1712 14.3684 22.6817 15.8137 24.4347 15.8137C26.1878 15.8137 27.6982 14.3658 27.6982 12.3076Z" fill="#EA4335"/>
<path d="M42.7608 12.3076C42.7608 15.6389 40.1547 18.0937 36.9564 18.0937C33.7582 18.0937 31.1521 15.6389 31.1521 12.3076C31.1521 8.9554 33.7582 6.52148 36.9564 6.52148C40.1547 6.52148 42.7608 8.95279 42.7608 12.3076ZM40.2199 12.3076C40.2199 10.2258 38.7095 8.80149 36.9564 8.80149C35.2034 8.80149 33.693 10.2258 33.693 12.3076C33.693 14.3684 35.2034 15.8137 36.9564 15.8137C38.7095 15.8137 40.2199 14.3658 40.2199 12.3076Z" fill="#FBBC05"/>
<path d="M54.7609 6.87105V17.2589C54.7609 21.5319 52.2409 23.2771 49.2618 23.2771C46.4574 23.2771 44.7696 21.4015 44.133 19.8676L46.3452 18.9467C46.7391 19.8884 47.7044 20.9997 49.2591 20.9997C51.1661 20.9997 52.3478 19.8232 52.3478 17.6084V16.7763H52.2591C51.6905 17.478 50.5948 18.091 49.2122 18.091C46.3191 18.091 43.6687 15.571 43.6687 12.3284C43.6687 9.06235 46.3191 6.52148 49.2122 6.52148C50.5922 6.52148 51.6878 7.13453 52.2591 7.8154H52.3478V6.87366H54.7609V6.87105ZM52.5278 12.3284C52.5278 10.291 51.1687 8.80148 49.4391 8.80148C47.6861 8.80148 46.2174 10.291 46.2174 12.3284C46.2174 14.345 47.6861 15.8137 49.4391 15.8137C51.1687 15.8137 52.5278 14.345 52.5278 12.3284Z" fill="#4285F4"/>
<path d="M58.739 0.782227V17.7387H56.2607V0.782227H58.739Z" fill="#34A853"/>
<path d="M68.3966 14.2126L70.3688 15.5274C69.7322 16.4691 68.1983 18.0917 65.5479 18.0917C62.2609 18.0917 59.8062 15.5508 59.8062 12.3056C59.8062 8.86475 62.2818 6.51953 65.2635 6.51953C68.2662 6.51953 69.7348 8.9091 70.2148 10.2004L70.4783 10.8578L62.7435 14.0613C63.3357 15.2221 64.2566 15.8143 65.5479 15.8143C66.8418 15.8143 67.7392 15.1778 68.3966 14.2126ZM62.3262 12.1308L67.4966 9.98388C67.2122 9.26127 66.3566 8.75779 65.3496 8.75779C64.0583 8.75779 62.2609 9.89779 62.3262 12.1308Z" fill="#EA4335"/>
<path d="M9.24963 10.803V8.34826H17.5218C17.6027 8.77609 17.6444 9.28218 17.6444 9.83C17.6444 11.6717 17.1409 13.9491 15.5183 15.5717C13.9401 17.2152 11.9235 18.0917 9.25223 18.0917C4.30093 18.0917 0.137451 14.0587 0.137451 9.10739C0.137451 4.15609 4.30093 0.123047 9.25223 0.123047C11.9914 0.123047 13.9427 1.19783 15.4088 2.5987L13.6766 4.33087C12.6253 3.34479 11.2009 2.57783 9.24963 2.57783C5.63397 2.57783 2.80615 5.49174 2.80615 9.10739C2.80615 12.723 5.63397 15.637 9.24963 15.637C11.5948 15.637 12.9305 14.6952 13.7861 13.8396C14.4801 13.1457 14.9366 12.1544 15.1166 10.8004L9.24963 10.803Z" fill="#4285F4"/>
</g>
<defs>
<clipPath id="clip0_7350_120918">
<rect width="70.9565" height="24" fill="white" transform="translate(0.043457)"/>
</clipPath>
</defs>
</svg>
